<mxfile host="app.diagrams.net" modified="2023-09-03T07:09:29.356Z" agent="Mozilla/5.0 (Macintosh; Intel Mac OS X 10.15; rv:109.0) Gecko/20100101 Firefox/117.0" etag="VoQ9bQqlTsObMSiM6GSE" version="21.3.3" type="device">
  <diagram name="Page-1" id="a9WyU5T7-OB7AI_AG0ah">
    <mxGraphModel dx="1094" dy="700" grid="1" gridSize="10" guides="1" tooltips="1" connect="1" arrows="1" fold="1" page="1" pageScale="1" pageWidth="850" pageHeight="1100" math="0" shadow="0">
      <root>
        <mxCell id="0" />
        <mxCell id="1" parent="0" />
        <mxCell id="ZmlpSeiP9JrGqyAvnS4Z-15" value="" style="rounded=1;arcSize=10;dashed=0;fillColor=none;gradientColor=none;strokeWidth=2;" vertex="1" parent="1">
          <mxGeometry x="550" y="70" width="200" height="70.5" as="geometry" />
        </mxCell>
        <mxCell id="ZmlpSeiP9JrGqyAvnS4Z-1" value="" style="image;aspect=fixed;perimeter=ellipsePerimeter;html=1;align=center;shadow=0;dashed=0;spacingTop=3;image=img/lib/active_directory/databases.svg;" vertex="1" parent="1">
          <mxGeometry x="679.78" y="218.8" width="53.47" height="52.4" as="geometry" />
        </mxCell>
        <mxCell id="ZmlpSeiP9JrGqyAvnS4Z-4" value="" style="shape=flexArrow;endArrow=classic;html=1;rounded=0;fillColor=#e1d5e7;strokeColor=#9673a6;" edge="1" parent="1">
          <mxGeometry width="50" height="50" relative="1" as="geometry">
            <mxPoint x="440" y="187.88" as="sourcePoint" />
            <mxPoint x="530" y="137.88" as="targetPoint" />
          </mxGeometry>
        </mxCell>
        <mxCell id="ZmlpSeiP9JrGqyAvnS4Z-8" value="" style="pointerEvents=1;shadow=0;dashed=0;html=1;strokeColor=none;fillColor=#4495D1;labelPosition=center;verticalLabelPosition=bottom;verticalAlign=top;align=center;outlineConnect=0;shape=mxgraph.veeam.2d.workstation;" vertex="1" parent="1">
          <mxGeometry x="30" y="209.4" width="76.4" height="51.2" as="geometry" />
        </mxCell>
        <mxCell id="ZmlpSeiP9JrGqyAvnS4Z-9" value="" style="shape=flexArrow;endArrow=classic;html=1;rounded=0;fillColor=#e1d5e7;strokeColor=#9673a6;" edge="1" parent="1">
          <mxGeometry width="50" height="50" relative="1" as="geometry">
            <mxPoint x="110" y="234.5" as="sourcePoint" />
            <mxPoint x="216.23000000000002" y="234.5" as="targetPoint" />
          </mxGeometry>
        </mxCell>
        <mxCell id="ZmlpSeiP9JrGqyAvnS4Z-12" value="" style="image;sketch=0;aspect=fixed;html=1;points=[];align=center;fontSize=12;image=img/lib/mscae/Docker.svg;" vertex="1" parent="1">
          <mxGeometry x="240" y="170" width="182.93" height="150" as="geometry" />
        </mxCell>
        <mxCell id="ZmlpSeiP9JrGqyAvnS4Z-14" value="" style="image;aspect=fixed;html=1;points=[];align=center;fontSize=12;image=img/lib/azure2/compute/Container_Instances.svg;" vertex="1" parent="1">
          <mxGeometry x="460" y="120.5" width="28.24" height="30" as="geometry" />
        </mxCell>
        <mxCell id="ZmlpSeiP9JrGqyAvnS4Z-17" value="" style="image;aspect=fixed;html=1;points=[];align=center;fontSize=12;image=img/lib/azure2/compute/Container_Instances.svg;" vertex="1" parent="1">
          <mxGeometry x="590" y="75.25" width="56.47" height="60" as="geometry" />
        </mxCell>
        <mxCell id="ZmlpSeiP9JrGqyAvnS4Z-18" value="" style="shape=image;verticalLabelPosition=bottom;labelBackgroundColor=default;verticalAlign=top;aspect=fixed;imageAspect=0;image=data:image/png,iVBORw0KGgoAAAANSUhEUgAABLAAAASwCAYAAADrIbPPAAAABGdBTUEAALGPC/xhBQAAACBjSFJNAAB6JgAAgIQAAPoAAACA6AAAdTAAAOpgAAA6mAAAF3CculE8AAAABmJLR0QA/wD/AP+gvaeTAACAAElEQVR42uzdeZhlB0Gn//dUdRYSIKwqm7In6epOgARZBIUBt9FxBzULmyK4oqIiKJugqKAg+6YIJHEIjisuoygoDqCEJemuTtgkCKJsQoBAJ+mu+/uj4k+EpEl3qqvOPffzeZ6eBCfdufetTt9zv3XOuQUAAAAAAAAAAAAAAAAAAAAAAAAAAAAAAAAAAAAAAAAAAAAAAAAAAAAAAAAAAAAAAAAAAAAAAAAAAAAAAAAAAAAAAAAAAAAAAAAAAAAAAAAAAAAAAAAAAAAAAAAAAAAAAAAAAAAAAAAAAAAAAAAAAAAAAAAAAAAAAAAAAAAAAAAAAAAAAAAAAAAAAAAAAAAAAAAAAAAAAAAAAAAAAAAAAAAAAAAAAAAAAAAAAAAAAAAAAAAAAAAAAAAAAAAAAAAAAAAAAAAAAAAAAAAAAAAAAAAAAAAAAAAAAAAAAAAAAAAAAAAAAAAAAAAAAAAAAAAAAAAAAAAAAAAAAAAAAAAAAAAAAAAAAAAAAAAAAAAAAAAAAAAAAAAAAAAAAAAAAAAAAAAAAAAAAAAAAAAAAAAAAAAAAAAAAAAAAAAAAAAAAAAAAAAAAAAAAAAAAAAAAAAAAAAAAAAAAAAAAAAAAAAAAAAAAAAAAAAAAAAAAAAAAAAAAAAAAAAAAAAAAAAAAAAAAAAAAAAAAAAAAAAAAAAAAAAAAAAAAAAAAAAAAAAAAAAAAAAAAAAAAAAAAAAAAAAAAAAAAAAAAAAAAAAAAAAAAAAAAAAAAAAAAAAAAAAAAAAAAAAAAAAAAAAAAAAAAAAAAAAAAAAAAAAAAAAAAAAAAAAAAAAAAAAAAAAAAAAAAAAAAAAAAAAAAAAAAAAAAAAAAAAAAAAAAAAAAAAAAAAAAAAAAAAAAAAAAAAAAAAAAAAAAAAAAAAAAAAAAAAAAAAAAAAAAAAAAAAAAAAAAAAAAAAAAAAAAAAAAAAAAAAAAAAAAAAAAAAAAAAAAAAAAAAAAAAAAAAAAAAAAAAAAAAAAAAAAAAAAAAAAAAAAAAAAAAAAAAAAAAAAAAAAAAAAAAAAAAAAAAAAAAAAAAAAAAAAAAAAAAAAAAAAAAAAAAAAAAAAAAAAAAAAAAAAAAAAAAAAAAAAAAAAAAAAAAAAAAAAAAAAAAAAAAAAAAAAAAAAAAAAAAAAAAAAAAAAAAAAAAAAAAAAAAAAAAAAAAAAAAAAAAAAAAAAAAAAAAAAAAAAAAAAAAAAAAAAAAAAAAAAACwpQYJAAAYq5WaqQCTM6v2VVdc+dfP/3GV/7eh9s3q0qE+PatPV59p/a+fHq78a/WZtc/730vrf/3ErvqE5DD/DFgAAIyWAQvYAFdUH60+Un1kVh8ZPu/vl678a/XhS+sjF9deyWB8DFgAAIyWAQvYAh+rLq7eP9TFsyv/fqkuvrwufuf6mV3AJjNgAQAwWgYsYIQ+0fqodXH1/uo91Z6h9uyuD8sDh4cBCwCA0TJgAXPmP1ofs1arPftrz1rteWd9SBq4dgxYAACMlgELmIhPVnuqPbO6YFZv+Vy942L324JrzIAFAMBoGbCACdtX7Rrqn6q3VG85sVZfXfulgS9mwAIAYLQMWMCC+Wz19tYHrX+q3rK6fo8tWHgGLAAARsuABdC/Va+rXjfU63bXeyVhERmwDmC3AyY2yQ7/LcKW2FUvHOoRSjAFszp7Z50xtedlwAL4Iv/SlYNW9brV9f8Nk+dN8wEYsNgsBizYfKv1bbP6YyWYiIuPqpPvUJ+a2hMzYAF8Sf/c+pj1t8v12gvqI5IwRd40H4ABi81iwILNtadutlYXVDdRgwkczO1fq6/dWW+c4vMzYAEclLXqH6s/qf5kdf2TD2EqxzxcHQMWm8WABZtnVsOe+r+z+no1mMjv6SfvrCdN9fkZsACulfe2Pmb96U3rDa9f/+RDmEveNB+AAYvNYsCCzbNaj57VM5RgIgdyb1qtez9wwh+5bsAC2DCfqP5iqD85qv7yrXWJJMzZcQ9Xx4DFZjFgweZYrTvN1k+rP1INJuBT++tOJ9f7pvwkDVgAh8UV1f8d6qzr1Z+8qT4nCWO3JAEAi+C8OmZWv5fxiomY1Y9OfbwC4LA5ovrWWf3vT9W/r9TLttf9bASMmd+cACyEo+o3qxOUYCLO2VlnyQDABrh+9ZChXrtSH9hRz1ipO8nC2Lhs6QBcQshmcQkhHF6r9e2z+iMlmIj3762TT12Qe5e4hBBgKw+hOmu5zrqgPigHW82b5gMwYLFZDFhw+Oypm63VBdVN1GACB277q/us1D8synM2YAFsuf3Vn6zV8y+sv8mfy2wRlxACMFmzGvbXKzJeMZ3f07+8SOMVAKOwXH3nUv31Sl20ox51Sh0nC5vNgAXAZO2pnx7q/kowBbN680frKUoAsIXuOKtn7a0PrdSL3SuLzeSypQNwCSGbxSWEsPFW606z+sd86iDT8Om1utNJ9c+L9sRdQggwem+c1fOHevVqXS4Hh4szsACYnPPqmFn9XsYrJmJWP7qI4xUAc+Gew/on4168vR59Uh0rCYeDAQuAyTmqfrM6QQkm4n/vrFfKAMDI3WyoZ+yv96/UE3bWDSVhIxmwAJiU1fr2oR6hBBPx/r31SBkAmCM3rp68tj5k/eqO+nJJ2AgGLAAm46K6+ax+WwmmYKj9Q515al2iBgBz6HrVY2Z18Uo9Z6W+UhKuDQMWAJMwq+GKennr3/WDKfyeftpKvUEJAObc0dWPVe/ZUb9zUt1GEg6FAQuASdhdjx7q/kowEf/40XqyDABMyBGzeuj+umilnnmCbzpykAYJDvhmyMc2syl2+G8RrpXVuvOs3pxPHWQaPj2rO++s90pRK47HAKbqkuppl9ZvXVx75eBLcQYWAHPtvDpmVudkvGI6ftx4BcACOK761WPrXSv1kOwTfAl+gwAw146uZ1YnKMEUDPWqHev3cgOARXGr6mUr9faV+iY5uDoGLADm1mp9e/VDSjAR/3J5PVIGABbUSdVfrNRrV+pkOfhCBiwA5tJFdfNZ/bYSTMTaUp155/qkFAAsuPtV5+2oZ5xUx8rBfzJgATB3ZjVcsX6ZlU+vYRKGetr2+nslAKCqbbN69P7as1LfJgdlwAJgDu2uRw91fyWYiH/6SD1JBgD4Il9Z/fGO+sMd6/fKYoEZsACYK6t156F+WQkm4jNDnX7f2icFAFy1WX3HbP1srJ96QC0rspgMWADMjfPqmFmdUx2pBlMw1I+v1HuUAIAv6brVb+6pt6zUXeVYPAYsAObG0fXM6gQlmIhXr9TvygAAB+XO1Zu319NXfFNzoRiwAJgLe+o7qh9Sgon4wFo9QgYAOCRLQ/1M9ZYTa4ccC/JFlwCAsbuobr5WL1WCiVhbqzNPqk9IAQDXyklLdd5K/VQ1yDFtBiwARm1WwxX18urGajCR39O/dlL9nRIAsCGOqn5zR/3VyXULOabLgAXAqO2unxnq/kowEW+5rJ4oAwBsrFndf1/t2lEPVGOaDFgAjNZq3XmopyrBRHxmqU4/ta6QAgAOixvO6lUr9Yrb1/XlmBYDFgCjdF4dM6tz8ukyTMSsHrW93q0EABx2Zx5Vb1+pk6WYDgMWAKN0dD2zOkEJJuL3d9bvyAAAm+a21RtX6jQppsGABcDo7KnvqH5ICSbig2t+PwPAVjimOnulnnmf2ibHfDNgATAqF9XN1+qlSjARa7M686T6hBQAsGV+8qP12pPqy6SYXwYsAEZjVsO+ekV1YzWYiF/fWa+XAQC23Nftr7dur7tJMZ8MWACMxu76mep+SjAR5+2tJ8gAAKNxy6H+fqUeLsX8MWABMAp76i5DPVUJJuLSpTrt1LpCCgAYlSOrF6/Ui+7jvlhzxYAFwJY7r46Z1TlXHlDA3JvVo7bXu5UAgNH6oY/VH59Ux0oxHwxYAGy5o+tZszpeCSbi/+ys35YBAMZtVv9zf73ezd3ngwELgC21p74j9yFgIob616F+SAkAmBun7q83nVh3kGLcDFgAbJmL6uZr9VIlmIi1WZ25Uv8hBQDMldsu1f9bqa+WYrwMWABsiVkN++oV1Y3VYCKevqNeJwMAzKWbVq9bqf8lxTgZsADYErvrZ6r7KcEUDPXWvfV4JQBgrh1T/eGK2wGMkgELgE23p+4y1FOVYCI+u69OP7WukAIA5t5y9aId9QtSjIsBC4BNdV4dM6tzqiPVYCIedXK9UwYAmI5ZPXWlflGJ8TBgAbCpjq5nzep4JZiCof5whw8iAICpeooRazwMWABsml31ndXDlWAKhvrX6geVAIBJe8qK+1yOggELgE1xUd18qJcowUTMqgev1H9IAQCT90sr9QQZtpYBC4DNeKc/7KtXVDdWgykY6hkr9TdKAMDCeLIRa2sZsAA47FbrZ6v7KcEUzOptuR8GACyiJ2+vJ8qwNQxYABxWe+ou1VOUYCI+u1anrdTlUgDA4hnqSTvqF5TYfAYsAA6b8+qYWZ1THakGEzlo/amT651KAMDimtVTV3yQy6YzYAFw2Bxdz5rV8UowkYPVP1qpFysBAFQv3FHfIsPmMWABcFjsqu+sHq4EE/Ghbb7TCgD8l+VZnbu97ibF5jBgAbDh3lG3GOqlSjARs6V68In1cSkAgM9zzFCvObHuIMXhZ8ACYGPf6dewrV5e3UgNpmCo39her1UCALgKN1mqv9xRXy7F4WXAAmBDrdbPVvdTgol4Rz5pCAA4sNtWf75S15Xi8DFgAbBh9tRdqqcqwUR8dq2+f6UulwIAOJDZ+nHw759SR6hxeBiwANgQ59exszonL9pMxFA/fVJdpAQAcA194+fq2TIcHgYsADbEcj1rVscrwUT88Uq9SAYA4GAM9cjt9VAlNp4BC4BrbVd9Z/WDSjAR/3aE388AwCEa6gU76lQlNpYBC4Br5R11i6FeqgQTMZvVg4+vj0kBAByio2b1B3eum0qxcQxYABz6O/0attUrqhupwUQ8c2f9tQwAwLV0q8vrVQ+oZSk2hgELgEO2Wj9b/Q8lmIh3DPVYGQCADXLfC+vXZNgYBiwADskFdUr1VCWYgqE+N6vTVupyNQCAjTKrR++o71Xi2jNgAXDQzq9jl+vs6gg1mIK1evTOulAJAGCjzeq3d9ZOJa4dAxYAB225njWr45VgIv50Z71ABgDgMDl2rV59j7qOFIfOgAXAQdlV31X9oBJMxL8fUQ+TAQA4zI7/VD1DhkNnwALgGntH3WKolyjBRMxm9eDj62NSAACb4Ee21zfLcGgMWABcs3f6tbStXlHdSA0m4lk7669kAAA2y1C/c8e6iRIHz4AFwDWyWj9b/Q8lmIjzj6rHygAAbLKvOKJeLMPBM2AB8CVdUKdUT1GCKRjqc0Oddoe6TA0AYAt85w734DxoBiwADuj8OnapzqmOUIMpmNXPrNQeJQCALTwe+a0ddTslrjkDFgAHtFzPqu6oBBPxmh31fBkAgC123Vm98gG1LMU1Y8AC4Grtqu+qflAJJuLfL3e6PgAwHvfYs36fWa4BAxYAV+kddYuhXqIEEzEb6qF3qY9KAQCMyBNOqtvI8KUZsAD44nf6tbStXlndSA0m4rdW6i9lAABG5jpr9VwZvjQDFgBfZHX9VOb7KsEUDLXrqPp5JQCAMZrV/1yp71biwAxYAPw3F9Qp1VOUYCL2Vt9/h7pMCgBgxH7r+LqeDFfPgAXA/+/8OnapzqmOUIMpGOpnV2pVCQBg5G6xrX5JhqtnwALg/7etfqu6oxJMwVB/tuKeEgDA/PjxlbqTDFfNgAVAVbvqu2b1A0owER/eVw+TAQCYI8vVC7PVXCVRAOgddYuhXqIEUzHUQ0+ujygBAMyZu+2oR8jwxQxYAAtuVkvb6pXVjdRgCoZ69kr9hRIAwJwenz/1TnUDJf67bRIALLbV+tnqvkowBUPtOqYeowRs2GvEoAKH4gG1vKeWj65tl9S2o2rbkbW8t7Yt17al2nZFHTvUsdV1//PHF/zv46qbVjf5vB83vfL/D6bsRlfUz7f+g/86zuPq7K6ZCmyGHf5bZItcUKcs1ZvyqYNMw96luuv22i3FdKw4HttSBizG6PZ11LF1k8vry4e61VC36r9+fOWVf715Tthgvn1uue54QX1QinX+gwZYUOfXsUt1TsYrJmKonzNeAUzfe+qy6l+v/PG2q/nHlk6sWy3VCUMdP6vjqxNa/+stVGQOXGdfPTkfsvT5x3pcHWdgsVmcgcVWWK2X+tRBpmJWf76zvkWJ6XEG1pa/VjhGYYp/rlx3aX3UutOs7tz6j5Nbv3wRxmR/ddJq7ZHCGVgAC2l3fbfxign5yFo9VAYAronV+kz11it//KelnXXHtbrLrO481N2ru1ZHKcYWWq5+tfo2KXxH5Uu9wfMdPzaFM7DYTOfXLZfr/HzqIBOxVN+yvf5ciWlyBtaWv9F3jMLCun0ddWR99VLde1b3ru5ZXV8ZtsC9V+sfFj2CM7AAFsisllbrFRmvmM7v6ecYrwA4HK6819YbrvxRtbS9Tl6q+8/qm6t75V6ibI5fq75m0SP4jsoBOAOLzeIMLDbLav38rJ6mBFP5LX1snXqb2ivFdDkDa8tfNxyjwNU4vq63VPdbWh+zvqn1T0CEw2Ko79pdf7jgDbg6Biw2iwGLzbCrTh3qjflOIdNw2Vrd9aTaJcW0GbC2lgELrrkTa8dyfc+sHrj+P2HjDLV7d53UAr8uLvltADB959exQ52d8YqJmNXPGa8AGJML1weGJ63W9qX1oeGXq3crwwYd++xYqW9d5AYGLIAFsK1+q7qjEkzEX+6o58gAwFjtql2r9YurdcdZ3aV6ZvVxZbiWfn6Rn7wBC2Didtd3z+oHlGAKhvrorB4yuKwMgDmxp96+Wj99Wd2iOq16XV7HODT33L7+iZgLyYAFMGHn1y2rFyvBVKzVQ3fWh5UAYN68py5brd9brf/R+pnxv159RBkOxtICn4VlwAKYqFktLdcrqhupwUQ8b2f9mQwAzLvVes9qPebS+qpZPTL3yuKaH+P/zx3r91hbOAYsgInaUz9X3VcJpnKs/6n6WRkAmJKLa++eetFqnTDUdw/1ZlX4UmYLehaWj8U9gN2uS2aT7PDfIhtsV5061BvzqYNMw2Wz+uqddYEUi2fF8diWWnWMAlvx5969ql+ovkkNrsb+5brDBfW+RXrSzsACmJjz69ihzsl4xXT8vPEKgEWxWv+wWt+8Vl9X/T9FuArL+xfwzHQDFsDEbKtnV3dQgon4vyv1WzIAsGgurL9frXsN9b/yjRy+2EPvXDddpCdswAKYkN313bN6mBJMwVAfHeohg0vIAFjs47vXrNadqtOqDyrClY6+fMGO+w1YABNxft2yerESTMVaPWyl/l0JAGi2Wr+3XCdUT6+ukITqh1qgexUasACmcERTS8v1yupGajARz99Zr5EBAP7LBXXpav3cUCdXr1Nk4d12R339ojxZAxbABOypn6vuowRT+S39qfoZGQDgqu2uC1frf7R+WeGHFVlcs3rkojxXAxbAnNtVp87ql5RgIi6rTrtnfU4KADiw1fq9K2pH9QdqLKz/dXzdfBGeqAELYI6dX8cOdU51hBpMxGN31PkyAMA186762Gp991APqi5RZOFs21Y/sAhP1IAFMM+vVvXs6g5KMAVD/fVKPUsJADh4u+uVQ+2s/kaNhfPwB9Ty1J+kAQtgTq3W98wW7KNzmbSPDfXgoWZSAMCh2V0fWF2/qfdjqv2KLIxbXVjfPPUnacACmEPn1y1n9WIlmIqhfmB7/ZsSAHCtzVbr16tvqD4qx4J80RfgZu4GLID5e3FaWq5XVjdUgykY6oUr9SdKAMDGWa2/HeqU6p/UWAjffHLdYspP0IAFMGf2rJ8Sfh8lmIgLL6mflgEANt7u+kB175y5vwiW9tX3TvoJ+hoDzI9ddeqsnqwEE3H5UKfdsz4nBQAcHqt1+Wo9onp07jU5dd835SdnwAKYE+fXsUOdUx2hBlMw1ONW6h1KAMDht1q/OdT3V5erMVl33Vm3neqTM2ABzIlt9ezqDkowBbN67fb6TSUAYPPsrlcN9Y3VJWpM9hhrsmdhGbAA5sBqfc+sHqYEE/Hx5XrQ4DIGANh0u+v1a3Wv6oNqTI8BC4Atc37dcubGm0zIUD+wvf5NCQDYGhfW7qX6uoxYU7RzR504xSdmwAIYsVktLdcrqxuqwUR+T79opf5YCQDYWrvqn6v7Vv+qxuSOtyZ5FpYBC2DE9tRjqvsowURcdFn9tAwAMA6r9Z619RHrQ2pMigELgM2zu+46qycrwURcPtRpp9ZnpQCA8biw3r1c/yOX90/JHbfXnaf2pAxYACO0Wtetzq6OUIMpmNUvrNTblQCA8bmg3rlW35BPJ5yMob53as/JgAUwQmv17OoOSjARf7OjfkMGABivC2t39V3VFWpMwrdO7QkZsABGZrUeMNRDlWAiPr6tHjTUTAoAGP1x6N9WP6jEJKzsqFtN6QkZsABG5Py65axepARTMauHn+DGsAAwN1brFdUTlZh/a/U/p/R8DFgA43mjv7Rcr6xuqAYT8eKd9YcyAMB8Wa1fql6uxHwbDFgAHA576jHVfZRgIgdM79xbP6UEAMynS+uR+QCWeXe/lTpyKk/GgAUwArvrrrN6shJMxBVDnXZqfVYKAJhPF9fepfqefDLhPDt2rb52Kk/GgAWwxVbrutU51RFqMAWz+oXt9TYlAGC+7ap/ntWDlZhfS/XNE3ouAGyltXp2dXslmIi/3VHPkAEApmFP/XH1dCXm1mTug2XAAthCq/WAoR6qBBPxH/vqQUPNpACA6bhpPa56kxJz6YST6jZTeCIGLIAtsqtuNasXKcFUzOrhd6p/VQIApuX1tW9/PaT6nBrzZ/9ELiM0YAFszRv9paV6ZXVDNZiIl+6sP5ABAKbponpX62diMWeG+vopPA8DFsAW2F0/P6uvU4KJeNf++kkZAGDaVuu3hvp7JebLrL5mCs/DgAWwyXbXXYd6khJMxBVrddrJdakUADB5syvv3+p1f77c9KQ6ft6fhAELYBOt1nWrc6oj1GAiHn9SvVUGAFgMu+qfZ/VYJebLWt1r3p+DAQtgc184nl3dXgkm4nUrPlYbABbOSj2/ukCJ+TGre8/7czBgAWyS1XrAladcwxR8Yn89aKg1KQBgsby69i/VTygxV5yBBcCXtqtuNasXKcFUDPVDJ9cHlQCAhT2+/bvqVUrMjdut1FfM8xMwYAEcZrNaWqpXVjdUgykY6rdX6veVAIDFtlw/kxu6z5O5PgvLgAVwmO2un5/V1ynBRLx7Xz1KBgDggvrgUE9TYm4YsAC4arvrrkM9WQkm4opZnXay77QCAFc6qp5ZfViJuWDAAuCLrdZ1q3OqbWowBUM9YWedpwQA8J/eWp+tflWJuXCnlfX3KHPJgAVwmMzqOdXtlWAKhvq77fXrSgAAX+jSemH1r0qM3vJSnTKvD96ABXAYrNYDqocowUR8Yq3OHGpNCgDgC11ce6tfUWL8ZnXyvD52AxbABttVt5rVi5VgKoZ6xM76gBIAwAG8tHq/DKN3p3l94AYsgA00q6WlemV1AzWYyO/pl63Uq5UAAA5ktS4f3AtrHo7t7jSvj92ABbCBdtfPz+rrlGAi3rNUPyEDAHBNHFWvqD6uxKhtv8+cfsiUAQtgg+yuuw71ZCWYiH3VaSv1GSkAgGvirfXZWb1IiVE76uN14jw+cAMWwAZYXf842nOa0+9mwBea1RN31FuUAAAOxv56XnWFEqM+zrvTPD5uAxbAxrwIPKe6vRJM5Pfz3+9wDwsA4BC8sz40q1cpMWpz+UmEBiyAa2lXPbB6iBJMxCerM4ZakwIAOES/KcF4OQMLYAHtqlsNrvNnWgc0j9hZH1ACADhUe+rt1T8qMVrOwAJYsDf6S9VZ1Q3UYCJ+d2edKwMAsAHHyi9TYbRucnLdYt4etAEL4BDtrscO9bVKMBHvHerHZQAANsLl9XvV55QYp321c94eswEL4BCs1lcP9SQlmMoxzFCnrdRnpAAANsJ76lND/YES4zSrO8zbYzZgARyk1brurM6ptqnBRA5gnrRS/6QEALCR1lxGOGZz9wnqBiyAg3+z/5zqdkowEW/YUU+TAQDYaHvqb6uLlRifYQ7fzxiwAA7Crnpg9RAlmIhPDnXGUGtSAACHwWxYvxcW4+MMLICp2lW3GupFSjAhP7xS/yIDAHC4zOoPVRil2zRnm5ABC+CavfAuVWdVN1CDiXj5jvrfMgAAh9NqvSXfMBujI0+or5ynB2zAArgGdtdjh/paJZiIf95WPy4DALAZZvVHKozPMGeXERqwAL6E1frqoZ6kBBOxb6lOP6E+LQUAsBmW6w9UGOXXxYAFMBWrdd1ZnVNtU4OJ+KXt9WYZAIDNsqveUH1EiXFZm7NPIjRgARzArJ7bHH7ELFyNf9hTvyIDALDJ1mb1GhnGZckZWADTsKu+t3qwEkzBUJcs1RkPrP1qAABbcCzy1yqMjgELYN7tqlsN9UIlmIpZ/fD2er8SAMBWOLL+Zv2QhBEdH/oUQoA5/4N8qTqruoEaTMFQr9xRv6cEALBV3l4frc5XYlSuf0odMy8P1oAF8AV212OH+lolmIKh3ndk/ZgSAMAIuIxwZC6rm83LYzVgAXye1frqoZ6kBFMw1P79dfod6lNqAAAjODZ5rQrjMjNgAcyf1brurM6ptqnBRPzSSfUmGQCAMbhevaG6TInxMGABzOcf3s+tbqcEE/H/VuuXZQAAxuJN9bnqPCVG5Svm5YEasACqXfW91YOVYCI+tVxnPLD2SwEAjMlQb1ZhPJacgQUwP1brK4d6oRJM6MDwR06si5UAAMZmZsAa29fDgAUwJ39gL83qrOoGajAFQ521UmcrAQCM9FjlH1UYFQMWwDxYrcdV91aCibj4yPpRGQCAsdpdH6g+pMRoGLAAxm617lY9UQmmYKj9szr9DvUpNQCAkXMW1ngYsADGbLWuO1u/zGqbGkzEU3bWG2UAAOaA+2CNx03uMyfviQxYwEKa1XOr2ynBRLxxtZ4qAwAwD4Z6hwrj+XJ8rG48Dw/UgAUsnF31vdWDlWAiPrW/znhg7ZcCAJgHV9RuFcZjf11/Hh6nAQtYKKv1lUO9UAmmYqgfObnepwQAMC/euX4T908oMQ7Lddw8PE4DFrAwZrU0q7OqG6jBRJyzsn4vNwCAebMqwWjeJzkDC2Bkr5CPq+6tBBNx8d76ERkAgHk0cxnhaAzOwAIYj9W6W/VEJZjIQcb+6oxT6xI1AIA5PZ4xYI2EM7AARuKiut5s/TKrbWowkYOMX95R/08JAGBerdUuFUZzbGnAAhiDffXc6nZKMAVDvemj9RQlAIA5924JRnN86RJCgK22q763epASTMSn99cZ9619UgAA8+zC+vdqrxKj4AwsgK20Wl851AuVYCpm9aMn1T8rAQBM49Cmi2UYBWdgAWzhq+HSrM6qbqAGE/F7O+uVMgAAE/I+CUbBGVgAW2W1HlfdWwkm4v1764dlAAAm5mIJtt5gwALYGqt1t+qJSjCRA4r9Q51xal2iBgAwseMcZ2CNwKyuNw+P04AFTMpFdb1ZnV1tU4OJHFD8ykr9gxIAwASPcwxY43DkPDxIAxYwKfvqudXtlGAi/vGj9UsyAAAT9X4Jtt5QR8zD4zRgAZOxu76vepASTMSnZ3X6fWufFADARH1Ygq03m5OrVwxYwCSs1ldWL1CCCfmxnfVeGQCAqbrMgDUWzsAC2Azn1vKszqpuoAZTMNSrdtQrlAAApuw9dVn1KSW2nAELYDNsr8dV91aCifiXy+uRMgAAC8JZWFvPgAVwuO2pu1dPUIKJWBvqjDvXJ6UAABaEAWvruQcWwOF0UV1vrc6elz9w4UsZ6mkr9QYlAIAFYsDaes7AAjic9tfzqtsqwUT800fqSTIAAAvGgLX1DFgAh8vu+r5ZnakEE/GZWZ1239onBQCwYD4hwZZzCSHA4bCnvmqoFyrBVAz14zvrvUoAAAvo0xJsubk4A8t9Y4C5cm4tr9VZ1XFqMAVDnbtSv6sEALCgDFhbzyWEABttez2uupcSTMQHLq9HyAAALKqhPqXCllvyIAE20J66e/UEJZiItaU64871SSkAgIU9IHIG1hjsn4cHacAC5sJFdb21OjuXPjMRQ/3q9vp7JQCABT8mMmBtPQMWwAb+ifq86rZKMBFv+Ug9UQYAAAPWON5ujZ8BCxi93fX9szpTCSbiM0Oddt/aJwUAsOiWDFhjYMACuLb21FcN9QIlmIqhfmKl3qMEAEANdZkKW24uBiz3kgFG69xaXquzquPUYCJevVIvkwEA4P93hQRbbi6uDHAGFjBa2+tx1b2UYCI+uFaPkAEA4L/sd1uFkXwZxs+ABYzSnrp79QQlmIi1WZ15Un1CCgCA/3KFAWsMDFgAh+Kiut5anZ3LnJmIWf3aznq9EgAA/931XEI4BgYsgEP80/N51W2VYCLOu6yeKAMAwBdzBtZYvgzjZ8ACRmV3ff+szlSCibh0qU471XcWAQCu0mcNWFtuqM/Ow+M0YAGjsae+aqgXKMFUzOontte7lQAAuGrv8Y2+MRyzfm4eHqf7ywCjcG4tr9VZ1XFqMBH/Z2f9jgwAAIycM7AArqmV+oXqXkowER8c6odkAAA4sNvXESpsubk4A8uABWy5PXX3WT1eCSZirXrQSv2HFAAAB3aMK8PGwBlYAF/KRXW9tTo7L1xMx9N31OtkAAD40o7wPmDLDc7AAvjS9tfzq9sqwURe/N+619mEAADX2KddQrjlZs7AAjiw3fX9szpDCSbi0qU67VSfpAMAcI05A2vrzZyBBXD19tRXDfUCJZiQnzyx3iUDAMA1t2zA2nKDM7AArtq5tbxWZ83qODWYiD/YUS+VAQDg4FxuwNpys/rUPDxOAxaw6VbqF6p7KcEUDPWvQz1cCQCAg3dkHaXC1lqqT87J4wTYPBfUPWZucs10zKoHrdR/SAEAcPDW6noqbPkB7Sfm4XEasIBNc1Fdb6nOymnCTMfTV+pvZQAAODQzA9YYfHIeHqQ3kcCm2V/Pr26rBBM52HrbZfWLSgAAXCsGrC225hJCgP+yu75/VmcowUR8dq1OO7WukAIA4NA5A2vrHeESQoB1F9ath3qBEkzIT55c75QBAODaWTJgbTlnYAFU59by/jprVsepwRTM6o921EuUAADYEAasLbbXgAVQK+v3CPoaJZiID22rH5QBAGBjuIRwy+19T102Dw/UgAUcNhfUPWZucs2Ejq+GetCJ9XEpAAA2xlA3UGFLzc2xrQELOCzeXddfrrPzaadM5+DqN1bqb5QAANg4a/XlKmypf5+XB2rAAg6Ly+t5s7qNEkzE26tfkAEAYGMNBqyt7v/heXmsBixgw63WabM6Qwkm4rNrddpKXS4FAMCG+zIJtpQBC1hMF9atq+crwVQM9dMn1UVKAAAcFs7A2louIQQWz7m1vL/OmtVxajARf7xSL5IBAGDj3Wf9frk3VGJLOQMLWDwr6584+DVKMBEfWq4fkAEA4PD4t/XLBwcltpQzsIDFckHdo3q8EkzEbKkefOIcfawwAMC8WXb54Bg4AwtYHO+u6y/X2bNaVoMpmNVvbq/XKgEAcPgMdSsVtvxr4AwsYHHsrefP6jZKMBHvWKrHyQAAcHgN6x8AxRY6sv5tXh6rAQu4VlbrtKFOV4KJHER9blanrdTlagAAHF6+Cb7lLnlrXTIvD9aABRyyC9e/Y/J8JZiKtfrpnXWhEgAAh58zsLbc++fpwW7z9QIOxbm1vL/Oqo5Tg4n40531QhkAADaHM7C23FwNWM7AAg7JSv1i9TVKMBH/dkQ9TAYAgE11awm2lAELmLYL6h7V45VgImazesjx9TEpAAA2x866Ya7m2FKDAQuYsnfX9Zfr7Fktq8FEPGtn/ZUMAACbZ1a3U2FrrRmwgCnbW893rToTcv5R9VgZAAA216x2qLC1nIEFTNZqnT7U6UowkRfszw112h3qMjUAADb9WMyAtfVfAwMWMD0X1q1n9XwlmIpZ/cxK7VECAGBLjsVWVNhSl+6uj8zTAzZgAV/SubW8v86urq8GE/GaHQZZAICt5AysrfWuajZPD9iABXxJJ65/4uA9lWAi/v3yepgMAABb4/br3xi/pRJb6p3z9oANWMAB7ap7LtUvKsFEzKqH3KU+KgUAwNY42tlXY/CueXvABizgar27rr9UZ81qWQ0m4rd21P+VAQBg66zVThW2nDOwgOnYW8+f1W2UYCIuOKp+XgYAgC331RJsrSUDFjAVq3X6UKcrwUTsHeq0O9RlUgAAbK2h7q7C1rrcJYTAFFxYt575hDam5WdWalUGAICtdeUN3E9QYkt96J316Xl70Nt83YDPd24t76+zW39hgbk31J+t1POUAADYekfWXXMyzVZ75zw+aL9pgP/mxHp8dU8lmIgPX1YPlQEAYByWXD645Wa1a05/7wCs21X3XKpfVIKpvDYP9ZC71EelAAAYyQFa3U2FrbVU58/p4waod9f1hzp7VstqMAVDPXul/lIJAIAxHaI5A2ur7a93zOPjNmABVV1WL6hurQQTOTLadWQ9RgkAgPFYqZOrmyqxpfZdMacfbmTAAtpVZ1SnKcFE7B3qtDvUZVIAAIzHUPdXYcu/Bhe9Z06Pkw1YsOAurFsPPqGNab0o/+z22q0EAMC4zAxYW25tTi8fLAMWLLRza3l/nV1dXw0mclD05yv1XCUAAMZlpY6s7q3E1prXG7hf+diBRXViPb66pxJMxEfW6qEyAACM0tdUx8iwtfY7AwuYN7vqnkv1i0owFUM95OT6iBIAAKN0Pwm23qzePq+P3YAFC+jddf2hzp7VshpM5IX4OSv1F0oAAIzWt0qw9W8FL6qPz+uDN2DBArqsXlDdWgmmYFa7r1s/pwQAwDjtrNtWJyux5d40zw/egAULZledUZ2mBBOxd1an3ab2SgEAME6z+i4Vtt5Qb57nx2/AggVyft1mqOcpwYQOhh5zUu1SAgBg1MdsBqxxfB2cgQWM37m1vFxnVddXg4n4ix31HBkAAMbrxLpZdXclttyl2+f8G78GLFgQ2+sJ1T2VYCI+MquHDjWTAgBgvJbrO6pBiS33llfX/nl+AgYsWAC76p5D/YISTMWsHrazPqwEAMDoj9seoMLWG+b88sEyYMHkvbuuP9TZs1pWg4l47s76MxkAAMbthPVPPr+PEqPw/+b9CRiwYOIuqxe0/sIBU7B6bP2sDAAA47etHpLLB8dg/956w7w/CQMWTNiuOqM6TQkm4rJZnXab2isFAMDoDbN6sAyjcN576lPz/iQMWDBR59dthnqeEkzFrB6zsy5QAgBg/FbqvrkSZCzH0X8zhedhwIIJOreWt9XZ1fXVYCL+7456tgwAAPNhVg9VYTT+dgpPwoAFE7S9njCreyjBFAz10aEeMtRMDQCA8dtZNxzqu5QYhcs+O4EbuJcBCyZnd33NUL+gBFOxVg9bqX9XAgBgbo7ffqg6RolReOPFE7mHrAELJuS8Oq46a1bLajARz99Zr5EBAGA+3Ke2VT+mxGj87VSeiAELJuToen5ulMh07PlU/YwMAADz46P1gOqWSozGX03liRiwYCJ21ZnVaUowEZdVp92zPicFAMBc+SkJRuPDq/WWqTwZAxZMwPl1m6GeqwQT8tgddb4MAADzY6XuVd1ViXGY1Z81oQ9CMmDBnDu3lrfV2dX11WAi/mqlniUDAMDceYwE47E0sXvJGrBgzm2vJ8zqHkowER8b6sHDhL5TBACwCFbqq6tvVWI0LpvVX0/pCRmwYI7trq8Z6heUYEIetlL/LgMAwNx5igSj8vrV+syUntA2X1OYT+fVcdVZs1pWgykY6gUr9adKAADMlyvvffUNSozK5I6rnYEFc+roen51ayWYiAsvqUfLAAAwl5x9NTJrE7v/VRmwYC7tqjOr05RgIi4f6rR71uekAACYL9vrftV9lBiVt1xY75/akzJgwZw5v24z1HOVYCqGeuxKvUMJAID58oBaHuo3lRiXWb1qis/LgAVz5HW1bVudXV1fDaZgqL/eXs9UAgBg/uypH65OUmJUZkt17hSfmAEL5shN6wmzuocSTMTHhnrwUDMpAADmyx3rJtUvKTE6b9xdH5jiEzNgwZzYXV8z1OOUYCqG+sHt9W9KAADMnyPqadUNlRid/z3VJ2bAgjlwXh1XnTWrZTWYgqFeuFJ/rAQAwPzZUadWD1NidNaq35/qkzNgwRw4ul5Q3VoJJuKiz9WjZQAAmD+n1BGzenH2hDF6/Wr9+1SfnN9wMHK76szq+5VgIi4f6rRT67NSAADMn8vqF6o7KzE+szprys/PgAUjdkHddqjnKcFUDPW4lXq7EgAA8+fEustsfcBifD69baKfPvifDFgwUq+rbcvrC/r11GAi/mZ7/aYMAADzZ6WOXK6XV9vUGKX/fUFdOuUnaMCCkbppPWFW91CCifj4tnrQUDMpAADm0pNntUOGcZrVb0/9ORqwYIRW615DPU4JJvRi84Mn1IeUAACYP9vrftXPKjHet5B76h8X4D0FMCbn1XGzOmtWy2owES/eXn8kAwDA/Dm5bjHUOXl/Mma/vQhP0oAFI3N0vaD6KiWYgqHeubd+SgkAgPlzSh2xb/3G4F+mxmhdfkW9chGeqAELRmR3Paj6fiWYiCuGOu3U+qwUAADzZ289vbqnEqP2f95VH1uEJ2rAgpG4oG5bPVcJpmJWv7C93qYEAMD82VEPrB6lxOiPuX9rUZ6rAQtG4HW1baizq+upwUT87Y56hgwAAPPnxLr7rH5XiXEb6s2LcPP2/7TNlxy23k3rCdXdlWAi/mNfPWiomRQAAPNlpW5f/Wl1HTVG71mL9GSdgQUjMNTjVGAqZvXwO9W/KgEAMF/uWDep/qL1vzJuH7hJ/Z9FesIGLBjHG34fSctUvGRn/YEMAADz5R51nSPXz7y6vRpz4Xmvr32L9IRdQgjARnnX/vopGQAA5stKHfmpenVuazIvPrtUL160J+0MLAA2whVrddrJdakUAADzY6WObP1StG9RY268ZFd9YtGetAELgI3wiyfVW2UAAJgfV45Xv199qxpz47J99euL+MQNWABcW69bqWfIAAAwPz5vvPpfasyV335nfWgRn7gBC4Br4z/214OGWpMCAGA+3KOu0/plg8ar+XL5UL+6qE/eTdwBuDZ+6OT6oAwAAPPhjnWTT69/2qAbts+f391dH1jUJ2/AAuCQDPXbK+vfuQMAYA7sqNvN6i9ndXs15s6+/fW0RQ7gEkIADsW799WjZAAAmA8r9dWzelPGq3n18ovq4kUOYMAC4GBdMavTTq5LpQAAGL/t9YDqddVN1ZhLn1uuJy16BJcQAnBQhnrCjjpPCQCAcbtPbfto/Xr1U2rM9fH3sy5w31kDFgAH5fXb1w+CAAAYsRPrZh+tc6t7qTHXPrZ3gT958PO5hBCAa+oT++vModakAAAYrxPra5fqbRmv5t5QT3lPfUoJZ2ABcM1fPH/oZKcuAwCM1il1xN56fPW4almRuffeo+oFMqwzYAHwJQ31Oyv1+0oAAIzTibVjb72iurMa0zCrx761rlBinUsIAfhS3l09SgYAgHG+r1+pn1ta/5Ad49V0vG5PvVqG/+IMLAAOZF91+kp9RgoAgHFZqe3VS6p7qjEplw/1ozL8dwYsAK7WUE9YqbcoAQAwHsfX9Y6oJ87Wz5L3vn56x+C/sbsuVOK/8xsdgKt74fy77fVrSgAAjMdKnVY9Y1Y3U2OS3n9UPVWGL2bAAuCqfHKtzhxqTQoAgK23Uneqnl3dW41J+4m31mdl+GIGLAC+yKwesbM+oAQAwNY6oe64XL9UPbAaFJm0P1mtP5HhqhmwAPhCv7uzzpUBAGDr7KhbzeqJ1UOqZUUm75Pb6kdkuHoGLAA+33uH+nEZAAC2xsl1i331s7N6ZHWUIothqJ84v/5ViatnwALgP+0b6rSV+owUAACba0edNKuf2VffVx2hyOIY6o921yuVODADFgBVzepJO+qflAAA2Dw76htm9TOz+no1FtLHluoRMnxpBiwAmtXf76inKQEAcPidUsftrdOrR85qpyIL7YcvqI/I8KUZsAD45FKdOdSaFAAAh89K3at6+N56QHUdRRbeOav1+zJcMwYsgAU3q0fuqH9RAgBg4x1fNz+iTpvVD1QnKMKV3nNZ/bAM15wBC2CxvXxnvUoGAICNc2LdbKjvGdbPtPqaWS2pwue5rHrAe+pTUlxzBiyAxfXebfXjMgAAXHsn1s2W6ruGeuBs/VJBoxVXaVaP2lPvUOLgGLAAFtO+oU4/oT4tBQDAwbtPbftI3WOpvnlW31ydXA0zaTiw39tTL5Lh4BmwABbTk1fqH2UAALjmTqhbL9f9q2/6aN1/qOMMVhyEd1U/JMOhMWABLJ437KmnyQAAcEBLK7Wz9csB733lX28hC4fo02v13RfWZ6Q4NAYsgAUy1CVDnfnA2q8GAMB/Oaluub/u3PqPu1f3rI5Thg2wNtRpF9ZuKQ6dAQtggczqkSv1fiUAgEV1Sh1xed1uVifP1sequ1R33l83UYfDdAz+c6v1GiWuHQMWwOJ4xY763zIAAIvgxLrZch2/VscPdcfq+OqOe+s23guzWWb1O3vqN5S49vxHC7AY/nlb/ZgMAMC8e0Atv7NufEV92VC3GupW/dePr7zyr7esjp5Vg2RskaH+/uh6pBIbw4AFMH371uqME+rTUgAAm/Xe/ZTadmRt+1QtH1HbPrv+v5eXa9vltW25jpnVdavrDnXs5/99dd1ZHTfUTWbrl/b9/z/21A2qYUljxu3d++q7dtcVUmwMAxbA9P3SSfUmGQA4WCs1U4FDtffKH7X+Dv6I1n9D7auW+u+/ua7J38Mc+eBaff1F9XEpNo7RGmDa/t+e+hUZAABgU3x8qG+40AcnbThnYAFM1FCXLNUZD6z9agAAwGH36aG+aXddKMXGcwYWwHT9yIl1sQwAAHDYXVZ9++46T4rDw4AFMEFDnbVS5ygBAACH3eXVA1frdVIcPi4hBJiYod53ZP2oEgAAcNjtXavvvrD+XIrDy4AFMCFD7V+rM+5Qn1IDAAAOq8+u1bdfWK+V4vAzYAFMy1N21htlAACAw+oza/UtF9bfS7E53AMLYDreuFpPlQEAAA6rS5bqG4xXm8uABTANn1qu0x9Y+6UAAIDD5kPVfXbVm6TYXAYsgAkY6kdOrIuVAACAw2bXUHdfrXdIsfkMWABzblZnr9TZSgAAwGHz15fVvXbXB6TYGgYsgPl28dH1IzIAAMDhMdTLjq5veY9P+t5SPoUQYH5fSPfP6ow7eCEFAIDDYW2oJ+yuX5Zi6xmwAOb11bSeurP+nxIAALDh/qM6fXf9pRTjYMACmENDvWlPPUUJAADY8GPtt+2r777IhySNintgAcyfT+2r0x9Y+6UAAICNM6vf+Ux9jfFqfJyBBTB/L6o/enK9TwkAANgwn6setadeIsU4GbAA5svv7ayzZAAAgA3z1qU6Y1ddJMV4uYQQYH68f2/9sAwAALAh9le/fHTdw3g1fs7AApgDw/qL6xmn1iVqAADAtfbPQ525u94oxXxwBhbAHJjVr6zUPygBAADX7tB6Vi+sTjZezRdnYAGM/RW23vyx+iUlAADgWtm1VI/YVW+SYv44Awtg3D49q9PvW/ukAACAQ/LZ6jE3rbsYr+aXM7AAxu3HTqp/lgEAAA7Jn+2vH7uoLpZivhmwAMbrf++oV8gAAAAHbc9Qj9ldr5FiGlxCCDBO/3JF/bAMAABwUP69esT2Osl4NS3OwAIYn7WhzrhzfVIKAAC4Ri4d6hlL9fQL6tJVPSbHgAUwPr+yUm+QAQAAvqS9Q71kVr+ye/3sKybKgAUwLv/40XqyDAAAcECXDvXCWT3DcLUYDFgA4/GZWZ1+39onBQAAXKVLZvW8tfrNi+rjciwOAxbAePzYznqvDAAA8EU+UD3/iHrhO9wrdiEZsABGYKhXrdTLlQAAgP/m9UM958T641fXfjkWlwELYOt94PJ6pAwAAFDVpdXZa/WcC2t3Xfn/sNAMWABba22pzriz06ABAOD/Va84ul711rpEDj6fAQtgCw31q9vr75UAAGBBva965VCv2O1+sByAAQtg6/zTR+qJMgAAsGD+fag/3l/nXFhvqGaS8KUYsAC2xmeGOv2+tU8KAAAWwHtm9UdL9Ye7600ZrThIBiyALTDUT6zUe5QAAGCi9lfnVX+2Vn94ofuwcy0ZsAA236tX6mUyAAAwMe+uXjvUX2+r173DBxWxgQxYAJvrA2v1CBkAAJiA91RvGur11V/vrg9IwuFiwALYPGtrdeZJ9QkpAACYM58a6p9m9eah3ryv3nxRfVwWNosBC2CTzOrXTqq/UwIAgDnzmeqstXrNcfX6N9XnJGGzDRJcvd0+FQHYOG/ZW19zal0hBcA1t+J4DGBs9lavH+ov9tdfXLh+3ys47AxYB2DAAjbIpUt15+1e3AEOmgELYPTeW/1F9WdH19+81TdsOUwMWAdgwAI2wqx+YGf9jhIAB8+ABTBXPlH98Vq9eqleu1qXS8JGMWAdgAEL2AC/v6MeIAPAoTFgAcytS6o/HurVs/orYxbXlgHrAAxYwLX0wbU6yacOAhw6AxbAJHxqVn8y1Fmr9dfVmiQcLAPWARiwgGthrbr/jnqdFACHzoAFMDkfnNUrhnrZar1HDq4pA9YBGLCAa+FXd9RjZQC4dgxYAJP2hlm9bKhXr9Zn5OBADFgHYMACDtF5e+uep/oEFoBrzYAFsBAurV491Et21xvl4KoYsA7AgAUcyovvct3lxHqXFADXngELYOG8tXr2ZfWq99RlcvCfliQA2DizepTxCgAADtkp1cuPqn9ZqV86sW4mCeUMrANyBhZwkP5gR323DAAbxxlYAAvviur31+rZF9ab5VhczsAC2Lg/UF+pAgAAbKgjqu9fqjet1BtPrP8pyWJyBtYBOAMLOEgfXKuTTqpPSAGwMZyBBcAXGupt1S/vrj/M68TCcAYWwMa55VK9SAYAADh8ZnWXWf2fHXXBSn3/A2pZlekzYAFsrAes1kNkAACAw2tWO6pz9tSF2+uh96ltqkyXAQtg419In31B3VYJAADYFHcY6nc+WqsrPlRpsgxYABvvest11rlOZQYAgM10x+r3d6zf8P1eckyLAQvgMJjVPU6sxysBAACbfix+9+oNK/XHO+pERabBpxAegE8hBK7lH7D799e9T6o3qQFwaHwKIQDX0v7qZfvqie+sD8kxv5yBBXCYzGp5qc66qK6nBgAAbInl6ge31btW6jGn1BGSzCcDFsDhddt99RwZAABgSx1b/ereOn+l7ivH/DFgARx+D16tB8gAAABb7sTqb1fqnBPrZnLMDwMWwCaY1YvOr1sqAQAAo/D9S3XRSv3kA3x6+FwwYAFsjhsu1ytm/twFAICxuH71zD31th11qhzj5o0UwOa57+56tAwAADAqJ83qzdvrl1fqSDnGaZDg6u32sc3Axrt8qLut1DukAPjSVhyPAbC5dq3VQy6st0kxLs7AAthcR87qnDfWdaQAAIDR2blU/7hSTz6ljpBjPAxYAJvvxOvXM2QAAIBR2lY9YW+9ZaVOlmMcDFgAW+NHdtW3yAAAAKN1cvWWHfUzuQXTlvMFOAD3wAIOs4/sr50n10ekALhq7oEFwEj82f568EX1cSm2hjOwALbOl22r35EBAABG71uW6x0rdS8ptoYBC2ALzepbdtePKAEAAKN3y+r1O+pxuaJt0wl+AC4hBDbpD+LPrdUpO+tCNQD+O5cQAjBSf7VcZ17gdiCbxhlYAFtsVtcZ6uzVOlINAACYC9+wv96xve4mxeYwYAGMw52rp8oAAABz42ZD/d1KPUiKw8+ABTASs3r07rqvEgAAMDeOql6+o56RjeWwEhdgXH8mv+KCuqEUAAAwP2b16JX6s1PqODUO35slAMbjlsv1QhkAAGDufNPe+scT6o5SbDwDFsDIzOqBu+vBSgAAwNw5frn+cUd9vRQby4AFME7PuaBuKwMAAMydG8zqz7bX6VJsHAMWwDhdb7nOOreWpQAAgLlzxFCvXKmflmJjGLAARmpW91ipX1QCAADm0lD9xvZ6+pV/z7WMydXYXTMVgC22b6nuvb3eLAWwiFYcjwEwAbM66zr1sLfWFWocGmdgAYzbtrU6a7WuKwUAAMynoc7YW39yUh2rxqExYAGM3+1m9RwZAABgrn3T/vqbU+o4KQ6eAQtgPjxktb5HBgAAmGt321uvvVPdQIqDY8ACmBOzetE76hZKAADAXDv1inrtzrqhFNecAQtgftxoW7185gM4AABg3p0yq9eu1I2kuGYMWADz5X6769EyAADAfJvVXTJiXWMGLIA5M9Qvr9adlAAAgLl35+pvT6gbS3FgBiyA+XPkrM5+Y11HCgAAmHsnL9ff3MmN3Q/IgAUwn7Zfv54uAwAATMLJV9Sf3sM3qa+WAQtgfv3onvqfMgAAwCTc61P1qvvUNim+mE+yOoDdNVMBGLkPX14771IflQKYohXHY1tq1fsFNskDavntte2Y2rZUR3y2th1R25Zr2+VX/nWoI2Z13ep61XVndb2lz/v7//y/VzepvuzzfhynMHPm5av10LwG/jdekA7AgAXMidfsqP8lAzBFBqytZcBiIn+OHLlcX3ZFfdnSf41aX1l91VC3ntVXXfm/j1KLsZjVM/bUzyrxX7wgHYABC5ijF7gf2VkvUAKY4BtPx2NbyIDFIr03PrG+Ylvdeq1uPdRtqu2zWqmOz32J2BqPWa1fl+HK/0gluHoGLGCO/jD/3P66y0l1kRrAlBiwtpYBC6pa2lG3uXLM2j6rlaX1v+6ojpSHw+yhq/W7MnhBOiADFjBPZvW2pbrHSl2uBjAVBqytZcCCq3f7OuqoOrn66it/3LX1s7X8d8NGumKpvn5X/d2ih/Af1gEYsIA59Os76jEyAFNhwNpaBiw4OLev6x9Zdx3Wx6z7VPeqjlWGa+njQ91td713kSN4QToAAxYwh9Zmdb+d9XopgCkwYG0tAxZcO6fUEXvrbrO631L9j1ndPZcdcmguPLru8da6ZFEDeEE6AAMWMKc+cEWddOf6pBTAvDNgbS0DFmyse9R1Pl33mtX9q29v/ZJDuKb+7/b6llfX/kV88l6QDsCABczxH+7nrtT3KgHMOwPW1jJgweF1Uh2/v75jqO+Y1d28R+caHOc/Z3f9xII+d66OAQuYcw/eUa+QAZhnBqytZcCCTf3z7iuqbxvq22f19dURqnBVhvrh3fXCBXzeXB0DFjDnPr2/Tj653icFMMdv6ByPbSEDFmyNO9ZNjqzTqgfP6i6K8AX2LdX9F+2TCb0gHYABC5iAN+6pr33ggl4nD8w/A9bWMmDBKP4c3F49uDqjurkiXOnfhrrz7vrwojzhJV9zgEm750r9ggwAAPNptfas1mNW61ZDfeNQf5RvTlI3m9XvPaCWF+UJG7AAJm5Wj19dvykoAADza213/dXu+s79dfuhfqP6hCwL7b576smL8mSdEnwALiEEJuS9Q91ppT4jBTBPXEK4tVxCCON2Sh1zWT1oVj+2/kcmC2g2q2/ZU38x9SfqDCyAxXC7tXq2DAAA0/HW+uzueuFq7RjqG6o3qLJwhqFeuaNuNfUnasACWJRXtnro7vpuJQAApmd3/fVqfe2s7p8ha9HcuDr3lDpiyk/SgAWwWF78jrqFDAAA07Sn/saQtXhmdffL6mlTfo4GLIDFcqNt9fKZe5oAAEzaFwxZb1Fk+mb10zvqPlN9fgYsgMVzvz310zIAAEzflUPW3aoHVx9SZNKGWb38lDpuik/OgAWwgGb1K7vrZCUAABbj8G+1XrFcd6x+udoryWR95d56zhSfmAELYDEdWZ3zvjpaCgCAxXBBXbpav7i/Tqx+X5HJOnOlvmdqT8qABbC4tl9aT5cBAGCxXFQXr9YDhvrG6l8UmaQXnlg3m9ITMmABLLYfW61vlgEAYPHsrr/aVztm9cJqpsik3HipfmdKT8iABbDgZvWyt9VNlQAAWDzvrE/vqR+u7le9T5FJ+aYd9cipPBkDFgBffuTEvjsDAMDBWa3XLdfOYf0G4M7GmohZ/drJdYspPBcDFgBV37prQt+dAQDg4F1Ql+6un1irb60+rsgkXH/fRD6V0IAFQFVD/cb5dbwSAACL7cL686HuXL1RjUn4zhPrO+b9SRiwAPhPxyzVOefVEVIAACy23fWBm9bXzeoZuaRw7i3Vc4+v6835cwCAdUPd5eh6ihIAALy+9u2pnx3q26r/UGSu3WJbPW2en4ABC4Av9LMX1NfJAABA1e56zVBfXb1Tjbn2wyfW3ef1wRuwAPii14aleuXb6wZSAABQtbveu1T3qF6vxlwf57/4lDm9ZYgBC4Crcqsj64UyAADwn3bVJ6pvrF6hxtzaeVk9ah4fuAELgKs0q+/dVWcqAQDAf1qty1frwdUT1Zjb4/zHn1RfNm+P24AFwNUa6rkX1q2VAADg863WLw3r3+zcr8bcuf7+euq8PWgDFgBf6sXtrHNrWQoAAD7f7jqr+r7qCjXmzg+s1J3m6QEbsAD4Ur5mez1OBgAAvtBq/f6sHlBdrsZcWaqeNW8PGAC+lCes1t1kAADgC+2pP16r76wuU2OufN1Kffe8PFgDFgDXxLZZnbVa15UCAIAvdGH9+VDfVn1Ojbny9NvXUfPwQA1YAFxTt69+SwYAAK7K7vqrob4j98SaJ7c5sn56Hh6oAQuAa2xWD9tV36UEAABX5coR62Hrh47Mg6F+fqVuNPbHacAC4GBf4F5yUd1cCQAArsqVn07480rMjetXjxn7gzRgAXCwbnRFvXxWgxQAAFyV1fr15uxT7hbcj63UV4z5ARqwADhoQ91/T/2UEgAAXJ3V9XsrvUqJuXDMUI8b8wM0YAFwSGb1K7vqJCUAALj6Q8YeVL1Jirn4Yj1ipb5yrI/PgAXAoTpqqHPeV0dLAQDAVVmty/fV91QfVmP0jqyeMNYHZ8AC4NpY+cz6/Q0AAOAqvbM+NKsHVPvUGL0Hn1h3GOMDM2ABcK0M9WOr9U1KAABwdfbUG4b6GSVGb9tSPXmMD8yABcC1NczqZW+rm0oBAMDV2V2/VZ2jxOh97wl1x7E9KAMWABvhK46sl8oAAMCBHF0PH2q3EqO2tFw/N7oH5esCwAb5ttV6hAwAAFydt9Znq9Ory9UYtTOPr5uP6QEZsADYMLP6zfPreCUAALg6u+uCRvxpd1R15HL91JgekAELgI10zLY6+7w6QgoAAK7Oaj29+gclxmuoR9ypbjCWx2PAAmBDzeqUo+uXlAAA4ADWlurB1WekGK3r7asfHcuDMWABcDj83AX1dTIAAHB1dtU/Vz+txHjN6iduXUeP4bEYsAA4LK8vS/WKt4/olGMAAMZntV5S/V8lRuvLjq2HjeINhq8FAIfJVx5RL5ABAIAv4ceqy2QYrZ+uhq1+EAYsAA6n79tVZ8gAAMDVWa33VL+uxGjdbnt901Y/CAMWAIfVUM+7sG6tBAAAV+f69bTqfUqM9ph+y2/mbsAC4LAfj+yvs86tZSkAALgqb6rPDfUTSozWN59Ut9nKB2DAAmAzfM32eqwMAABcnd31mupPlRilpf31w1v6AHwNANgkT1ytr5YBAICrs1yPqi5XYpQedus6eqv+5QYsADbLtlmdfX4dKwUAAFflgnrfUC9SYpRufGx931b9yw1YAGym22+r35IBAIAD+OXqUhlGactu5m7AAmBTzeoHdtV3KgEAwFXZXR+e+abnWJ26skW3BTFgAbDphnrJRXVzJQAAuCpH1tOrTygxymP5h23Fv9eABcBWuPEV9fJZDVIAAPCF3lGfrH5difGZ1ffeegtu5m7AAmBLDHX/1fpJJQAAuCpH17Orf1didG5w3fq2zf6XGrAA2EpP21UnyQAAwBd6a322eqYSo/Tgzf4XGrAA2EpHDXXO+7bgFGQAAMbv6HpR9WklxmVW37hSX7GZ/04DFgBbbeWz9WsyAADwhd5alwz1YiVGZ3lWp2/mv9CABcCWm9WP765vVAIAgC+0VM+qrlBiXIZNvozQgAXjePP+5yrg9a/ffWfdRAoAAD7fBfXBWb1KidHZeWLdZbP+ZQYsGIeHVR+RgQX3FVfUb8sAAMAXWqqnqzDKr8uZm/jvArbazvrwrH5ACejbVuuHZAAA4PPtrguqv1ZidL6n9aspDjsDFozEznrNUC9QgkU3q2eeX8crAQDAF3iRBKNzyxPrbpvxLzJgwYhcUo+uLlKCBXfMtjr7vDpCCgAA/tPR9SfVh5UYl+X1s7AOOwMWjMg963NDnVZdrgaLbFanHFVPVgIAgP/01vVPIny5EqM7dv/uzfj3GLBgZFbq7bP6RSVYdEM9Zk99rRIAAPyntXqpCqNz6x116uH+lxiwYIR21G9Ur1OCBbe0Vq88r46TAgCAqgvr3dXfKTEus024jNCABSM01Nr+elD1CTVYcF95tA83AADg88zqJSqMzmG/jNCABSN1cn1wqEcoAX3/ap0uAwAAVZ+t/5Nv9o/N7Vfq5MP5LzBgwYit1Kur31UCet6FdWsZAAC4uPYO9UdKjM53Hc5f3IAFI7etfqJ6rxIsslkdt79eeW4tqwEAwKzOVWF0/ufh/MUNWDByJ9Snl+qMap8aLLh7nVg/LwMAADet11YfV2JUTjmpvuxw/eIGLJgD2+vNQz1VCRbdUE/aXXdVAgBgsb1+/Rv8f6TEuA7X99c3Ha5f3IAFc2J1fcB6oxIsuG3V2efXsVIAACy2oV6lwuh88+H6hQ1YMCceWPv3r19K+Gk1WHB3WK5nyQAAsNhOrL+tPqbEqHzDAw7TfWsNWDBHTq73VT+mBPSDe+o7ZAAAWFyvrv3VHygxKje6sO52OH5hAxbMmR31CqfKQq3VS/fUzZQAAFhofyjBuMwO02WEBiyYQ5fXI6sPKMGCu/GsXj6rQQoAgMV0ab2++pwSo2LAAtbduT45qwdVa2qwyGb19av1KCUAABbTxbW3+jslRuUuJ9WXbfQvasCCObVz/TsNT1cC+tULaqcMAACLaai/VGFcX5J99XUb/YsasGCO7a3Hz+ptSrDgjhrqnPfV0VIAACyeffUXKozLYMACPt+pdcVanVZ9Vg0W/AVyx2frV5UAAFg8F9W7qn9WYlTH5wYs4L87ud45q0crwaKb1U/srm9UAgBgIbmMcFzH5isn1I038tc0YMEE7KwXVn+iBAtuqF72zrqJFAAAC3cg6DLCkX1JttXXbuQvaMCCibi8frD6dyVYcDe7ol4qAwDAYtlbf59PaR+VmQELuCp3qY8O9dD1PydgoX377nq4DAAAi+M99alqlxKjsqH3wTJgwYSs1F/O6rlKQM+8sO4oAwDAQvkHCUbl5DvVDTbqFzNgwcRct35uVruVYMEdu7/OPq+OkAIAYGEYsMZlaV/da8N+MT1hWm5Te6vTq8vUYMGdep16kgwAAIthW71BhdG550b9QgYsmKCddUH1WCVYdLP6+dW6txIAANN3fv1rdbESo3LXjfqFDFgwUSv1rKH+WgkW3NKsXnleHScFAMD0zVxGOLavx6nVsCEH9nLCNA01G+rB1cfVYMF91dH1fBkAABbifZDLCMflBifUHTbiFzJgwYRtr39bqh9UAjpttU6TAQBg8v5JgnFZ2qDLCA1YMHHb64+qlyoBPX9PfZUMAADTdXStVpcrMR6DAQu4pvbXT1bvVoJFNqvj1uqVM699AACT9da6ovURi/H46o34RRzEwwI4uS6tTm/9D3NYZPfeXT8vAwDAdM3q7SqMyp3uU9uu7S9iwIIFsaPeMqsnKcGiG+pJuzfw43wBABjd8Z4Ba1yu89HacW1/EQMWLJAd9av5VA44ojr7/DpWCgCASTJgjc+1/gayAQsWyFBrS3XmUJeowYK7w3I9UwYAgEk6v5rJMConXdtfwIAFC2Z7vb/6ESWgh++p75ABAGBaVusz1XuUGBWXEAIHb6XOmdXZSrDo1uqle+pmSgAATMtQ71BhVAxYwKG5rH60ulgJFtyN1+p3ZzVIAQAwHbN6pwqjcpMd9eXX5hcwYMGCOrUuGdbvh7VfDRbcN+yun5ABAGA6BgPW6Kxdy7OwDFiwwFbqH1r/ZEJY9AOcX7ugdioBADANs3qXCuOyZMACro2P1JOqf1KCBXfUcp397jpKCgCA+Xe0M7BGZ2bAAq6N+9a+oU6vLlWDBX9B3XmZMxIBACbhrXVJ9WElxmMwYAHX1kq9Z1aPUgJ61K76BhkAACbBZYQjMquVrsWHJxmwgKp21m9Xf6AEC24Y6ncvrBtLAQAw91xGOC7XW6lbHepPNmAB//XOvR5efUgJFtzN9tVLZQAAmPv3NwaskZnVHQ715xqwgP/fSv3HUj14/c8VWOiDne/YvT7oAgAwv94rweiOs293qD/XgAX8N9vrtdUzlYCeuedafIcIAIAt9wEJRseABWyco+px1flKsOCOXauzX1fbpAAAmEsGrPExYAEb5w512VCnVXvVYMHd9cvqSTIAAMyf3fWR6nIlRuX2h/oTDVjAVVqpPUP9nBIsulk9drXurQQAwDweyvWvMoyKM7CAjbdSz6n+QgkW3NKsXnleHScFAMB8GVxGODbXPam+7JAOyrUDDmRWDx3qo0qw4L7qqHqeDAAAc8eANb73mId0FpYBCzignfXhtXqYEiy6oU5fXb83HAAAc2JWH1RhdF8TAxZweOys1wz1AiWg5++pr5IBAGBuOANrZNYMWMDhdEk9urpICRbZrI7bX6+Yef0EAJgLa27iPjpD3epQfp4DcOAauWd9bli/fMrH0LLoL7hfu6ceowQAwPgt1cdUGJ1bHOLXEuCaWam3V49XgkU3qyfvqlOVAAAYNwPWKN38EL+WANfcSj2jep0SLLgjhjr7vDpGCgCA8brMgDVGzsACDr+h1vbXg6pPqMGCu+PR9UwZAADG6131H9WaEqNy49vXUQf7kwxYwEE7uT441COUgH5otb5dBgCA0VqrPinDuBxzCJcRGrCAQ7JSr65ergSLblYvXa2vUAIAYLRcRjgy+w/hMkIDFnDIttWPV/+sBAvuJrP63VkNUgAAjJIBa2QGAxawmU6oT6/VGUPtV4MF94276ydkAAAYJQPWyMxcQghstpPqTdVTlGDRDfWre2qHEgAA4zIzYI3x2NkZWMDmW62nDutDFiyyo2d1zrsP4RNVAAA4fIb6lArjslZffrA/x4AFXGsPrP3764zq02qwyGa187J6mhIAAKPyGQnGZagbH+zPMWABG+Kk9Zu5/7gS0E/uqq+XAQBgNC6VYHRudLA/wYAFbJgd9fKhzlWCBTcM9fILD+G7SgAAHBbOwBofZ2ABW2t/PbL6gBIsuJut1UtkAADYejNnYI2RAQvYWifVJ2b1oGpNDRb8QOk7d9cPKgEAsOWcgTU+N+ggNykDFrDhdtbrq2coAT1rT91BBgCAreMMrFEaTqgbHsxPMGABh8Xe+sVZvU0JFtyxa3XW62qbFAAAW8YZWON0UJcRGrCAw+LUumJWp1efVYMF99VfVk+SAQBga2xzBtYoHWHAAsbipLpoVo9WAvr51bqXDAAAm29wBtYozepGB/PPG7CAw2pnvbD6UyVY8Bfn5Vm98t11fTUAADbXWu1TYZTHyM7AAsbl8vqB6sNKsOBufXk9TwYAgM2134A1Vtc9mH/YgAUcdnepjw71kGqmBotsVmfsru9XAgBg8xxpwBqloY49mH/egAVsipX6y1k9Vwno+av1lTIAAGyOfbVfhVEyYAHjdN36uWpVCRbcDdbqlTOvwQAAm+IKZ2CN0poBCxir29TeWZ1WXaYGi2yor91Tj1ECAODwO8aANdZjYgMWMF4764KhHqcEi25WT76gTlECAODwcgbWaBmwgHHbXs8c6q+VYMEdsVxnn1fHSAEAcPhc3z2wxsqABYzbULOhHlx9XA0W2ayOP6p+UwkAgMPncmdgjZUBCxi/7fVvs3q4Eiy6oR6xWt+mBADA4fFWA9ZYGbCA+bCz/rB6qRIsuln99mp9hRIAABvvAbaPUXITd2Cu7K+frN6tBAvuJrN62awGKQAANtbba5sK4zM7yHvBGrCALXVyXVqdntN64Zt214/LAACwsY4xYI3VQX1dDFjAlttRb5nVk5Rg0Q31a6u1ogQAwMY5woA1VgYsYP7sqKdVb1CCBXf0rM55dx0lBQDAxthbyyqM0kF9XQxYwCgMtbZUZw51iRosuJMuWx90AQDYAMvOwBorZ2AB82l7vb/6ESWgn9xT95cBAODau8yANVYGLGB+rdQ5rf+ARTas1csvrBtLAQBw7WwzYI2VSwiB+bZ3/Sys9yvBgrv5/nqxDAAA186SAWusnIEFzLdT65KhzqzW1GDBfdeu+gEZAAAO3T43cR8rAxYw/1bqDYMbWUND/dZq3V4JAIBDs1THqDBKLiEEpuEj9aTqLUqw4I6d1dmvc+o7AMAhGepYFUbJGVjANNy39i3V6dWlarDgvvqm9UQZAAAOyXUlGCVnYAHTsb3eXf2kEiy6oR67u75GCQCAg2bAGqeDuuexAQsYvR310qH+UAkW2Wz9O1RnvbuurwYAwEFxCeE4GbCA6Vmqh1cfUoIFd+vL63kyAAAcFGdgjdP+g3xPCDB+J9bHl+rB1UwNFtmszthd36cEAMA15gyscXIGFjBN2+u11bOUgF6wq24lAwDANeIMrHEyYAHTdVQ9trpACRbcDZbqlTOv4wAA14QBa5xcQghM1x3qsqFOq/aqwSKb1dftqZ9TAgDgSzJgjZMzsIBpW6nVwRt3aFa/dEGdogQAwAGPmW6swihdfjD/sAELmEsr9ZzqL5RgwR2xXGefV8dIAQBwtW4iwShddjD/sAELmFuzeuhQH1WCBf/v4Pij6jeVAAC4aoMBa6wMWMBi2FkfntUPKIGDsh6xu/6XEgAAX2xmwBorlxACi2NH/elQL1SCRTfUb++qL1cCAOCLuAfWODkDC1gsl9RPVxcpwSKb1U2HepkSAAD/5ZQ6rjpCifEZDFjAorlnfW6pTu8gT0GFCfrm1fpxGQAA1l3m8sHRmhmwgEW0vd5WPV4JHAj066u1ogQAQK0ZsMbscwfzDxuwgMlYqWdUr1OCBXf0rM5erSOlAAAW3cz9r8bsMwfzDxuwgMkYam1/Paj6hBosuJNn9TQZAIBFt1Q3V2G0Lj3IryXAhN611wdn9UgloJ/aU/eXAQBYcLeSYLScgQUstp11bvVyJVhww6x+d7VuJAUAsLAHRAasMXMGFsC29U9i+2clWGSzusWsXqwEALDADFjj5QwsgBPq02t1xlD71WDBffeuepgMAMAimhmwxsyABVB1Ur1prZ6qBItuqN/aVbdTAgBYQLeUYLQ+fTD/sAELmLQL6ylDvUkJFtx1hzr7dbVNCgBgUeysG1bHKjFanzyYf9iABUzaA2v//jqjg1z3YYLudtN6ggwAwKJw+eDovz6fOJh/3oAFTN5J6zdz/3ElWHRDPW5X3VMJAGBBGLBGbNkZWABfbEe9fKhzlWCRzWp5qc56d11fDQBg6tbqtiqM+tj0kwfzzxuwgIWxvx5ZfVAJFvxA4TaX13OVAACmbqjjVRivfQYsgKt20vo11g+q1tRgkc3qzF31vUoAABN3RwnGa6cBC+Dq7ajXVc9QgkU31At3uS8EADBtzsAar0teXfsP5icYsIBFfOP++Fm9TQkW3A2GesXMsQAAMEH3qOvkm3Vj9pGD/QkOWoGFs1KXz+r0oT6nBgvuPqv1szIAAFPzqfXLBwclRuujB/sTDFjAQjqpLlqrRysBPWVP3UUGAGBKZu5/NXYGLIBrame9oHqNEiy4I9bq7Deun2YPADAJPoFw9FxCCHAwLq+HVR9WggV3wnH1mzIAAFMxM2CN/evjDCyAg3GX+uhQD1UCBxE9cld9qxIAwBQMdZIK47XkDCyAg7dSf1E9VwkcSPQ7u+rLlQAA5tnt66hquxKj9u+HcKwKwLHrn8S2qgSLbFY3HeplSgAA8+zo2lltU2LUx53/erA/x4AFUN2m9lanV5epwYL75tX6MRkAgHk1qzurMG5L9aFD+DkAVO2o84d6nBI46Ovpq067BwDmlwFr5D5twAK4drbXM2f1WiVYcEfP6pzVOlIKAGDeDAassfuPi9evgDkoBiyA//5iNzuiHlx9XA0W3Mlr9SsyAABzZmnmEwjH/p7rQ4f0hZUO4L87oT40q4crgYOLfnq17qcEADAvdtTx1TFKjNeh3MC9DFgAV2ln/eFQv60EC26oXr5aN5ICAJgTp0oweu8/lJ9kwAK4GvvqUdW7lWCRzeoWs3qREgDAnBy73FuFcRsMWAAb6+S6tDq92qcGC+57VuuhMgAAc8CANXKzuvhQfp4BC+AAdtRbZvUkJXCg0bN31e2UAADG6oS6cev3wGLEBgMWwOGxo55WvUEJFtx1q7NeV9ukAADGaKnu1fo9PBmxKwxYAIfHUGtLdeZQl6jBgv+3cPeb1uOVAADGaMnlg/PgsnfWvx3i1xeAL2X7+o0Gf1QJFt1Qv7Cr7qkEADA2s/UzsBi3969/qQ6eAQvgGlqps6tzlGDBDwyXl+qsi+p6agAAY3GPuk51FyVG75A/5d2ABXAQ9taPdIgf+wpTMavb7KvnKgEAjMUl62eIH6HE6BmwADbDqXXJUGdWa2qw4B60qx4oAwAwBkv1zSrMBQMWwGZZqTcM9atKsOiGeuH5dUslAICtNjNgzcvxowELYDN9pJ5YvUUJFtwNl+sVM8cTAMAW2lG3qrYrMX77DFgAm+u+tW+pTq8uVYNF/89htX5GBgBgqzj7am5cdlH9y6H+ZAMWwCHavv7dg59UAnrKat1ZBgBgi3yTBHPhXV2LewkbsACuhR310qH+UAkW3JGz/6+9Ow+z7CDo/P251UvCFlYDCigCkaSrOwQIMCIoGRwUxHElKmHfBQQRFRjgxy6CgAMKyp6EBJEo8EOFAcLosMmSENJd1UkwEjZliQRISEgn3XXmjwrKAIlJupZ767zv8/QTup+Hu3y6q+rUt849t9704eW3rwYAWDN3r83VPZSYCYv78382YAHsp7l6RPVFJRi5Q69bL5EBAFhLX62fqA5SYiYYsADW02H11aEeVA1qMGZD/eauuo8SAMBaWapfUGE2TAxYAOtvR723+p9K4MCk151eBysBAKzNoUf3lWE27DVgAUyHA+qp1U4lGLmD5+oNMgAAq22+7lLdTImZsGdH/fP+3IABC2CFHFJ7JnW/6mI1GLNJ3XuhHqsEALDKnH01O844qfbtzw0YsABW0HwtDvVkJRi7Sf3RrjpMCQBg9Q43+lUZZuYv67T9vQ0DFsAK215/Uv0vJRizoa4xqTct1lY1AICVNr/87oM3VWJmfHJ/b8CABbDCJjVM6iGTOlcNRu6I6vkyAACrcMx9tAqzY8kZWADTab6+NNTDlGDshnrSYv1XJQCAlXLf2jR4+eBMHRJeUqfv740YsABWyfb6m6FepQQjNxnquJ11fSkAgJWwu+5d/aASM+PTZ9f5+3sjBiyAVbSnfqc6UwlG7mZzxlwAYOU8QoKZctpK3IgBC2AVHVkXzdUx1aVqMHL3XawHywAA7I/b1A+1fAYWM2JSH1uJ2zFgAayybfWJ6hlKMHZDvXxn3VIJAODq2lIPqTYpMTv21UdX4nYMWABrYL7+qPoHJRi562yqE97ioBMAuHomQz1Uhpmyb0uduhI3ZMACWIuvtLU01AOrr6nBmA3144c5IxEAuBoOq3vkbO5Zs7izLlyJGzJgAayRHfX5oR6tBGM3V0/fWT+uBABwVWyqR6owcz66UjdkwAJYQzvqLdXxSjBmQ22aqxPOrOuoAQBcGYfWLYb6ZSVmy8SABTC7Ntfjqk8rwcjdcm/9iQwAwJUxV0/MdTRn0YdX8N8AAGvp0Lpgqe4/qX1qMHIPWqz7ygAAXJEddf2Ji7fPoq8u1JkrdWMGLIB1cHj941I9TwnGbqhXnV43UwIAuILjhd+srq3EzPng8l/fyjBgAayTM+q5k/pHJRi562+q4wfHJADA9zFfW4flS3AwY4b6wErenoNFgHVydO3bV/evLlCDkTtqoZ4kAwDw3SbLx8s/qMRM/t0ZsAA2isPr05N6vBI4wOl5i3WEEgDAt923Ng31e0rMpIt+oD6xkjdowAJYZ/N1bHWSEozc1qHe9OG6hhQAQNXuekB1qBIz6UP/UHtX8gYNWABTYKkeVX1BCUbusIPqxTIAAPO1tXqmEjPr5JW+QQMWwBQ4vL5WPbBaUoORe8yu+jkZAGD0HlndQobZNFfvW4XbBGAabK+/n9RLlGDsJvX60+tgJQBgnO5Q16yepsTMOm9XnbbSN2rAApguT28VPtnDjDl4c71eBgAYp4vrt6qbKDGz/r5VeGWJAQtgiszXJUt1v0l9Sw3GbKifW6jHKAEA43KHum71+0rMrskqXP+qDFgAU+fwOnOpnqQEDn568a46TAkAGI899dzqBkrM9DHce1bjdg1YAFNoR/1Z9bdKMGZDXWNSJy4uvwsRALDBba/DB2dgz7qzdtWnV+OGDVgAU+qSemj1ZSUYudtVz5MBADa8yVCvqDZJMdPeuVo3bMACmFK3r3Mn9RAlGLuhnrRQRykBABvXfD2wuqsSs23JgAUw2i/k76r+VAlGbq46fmddXwoA2Hguu3D7C5WYed+cq/ev5gEhAFPsWvV71W4lGLmbzdWrZACAjedb9ZzqxkrMvPct1iWrdeMGLIAp96N1cXW/VvGLAcyI+y7Ug2QAgI1jvn5iUo9TYvZN6m9W8/YNWAAzYHudPqn/oQT0JzvrljIAwOw7vK5VHZdtYiNY2lLvWM078I8EYEZsq5cOdbISjNx1NtUJb/EORQAw8/bWi6tbKTH7JvXB0+rc1bwPAxbA7HxRGLYsv3zqPDUYs6F+fL6ergQAzK7tdc9JPVqJDXN89rbVvg8DFsAMObT+dahHKAE9Y3f9FxkAYPYcUdcb6vVKbBz76u2rfR8GLIAZs6PeOqnXKcGYDbVpqU44s66jBgDMlkvrFdVNldgwTjuzPrPad2LAAphBe+sJ1dlKMHK32lsvlwEAZsf25ZcN3k+JjWOok9bifgxYADPotnXhpI6p9qrByD14sX5VBgCYfvN1x6FepsTGsrnevBb3Y8ACmN0DgI9Vz1aCsRvqVafXzZQAgOn1Y3Wj6q+qrWpsKB/bWeesxR0ZsABm2O56QfVBJRi5G2yq44aaSAEAU2luS72p+mEpNpw3r9k/Iq0BZtfRtW9TPWBS31CDkfuvC/UkGQBg+myr51b/TYkNZ9hcb1mrOzNgAcy4w5bf8eOxSjB2k3r+Yh2hBABMj/n69Uk9VYkN6f2n17+s1Z0ZsAA2xoHBiS2flg1jtnWoEz9c15ACANbf9rp7dVxe5r8hTer4tbw/AxbABnFxPab6rBKM3LaD6o9kAID1dVhtH+ptuWj7RnXRpXXSWt6hAQtggziyvjGpB1RLajByj91d95YBANbH4XWzuXpXdT01Nqah3npWXbCW92nAAthA5usDk/pDJRi7pXr96XWwEgCwtu5Q191X76xupsaGduxa36EBC2CD+VY9q/q4EozcjTfV62QAgLVzeF1rT72j2qHGhvb53fX3a32nBiyADebIunSujqkuVIORu8+u+k0ZAGD1zde199W7hvpJNTa8Y1uHy5YYsAA2oG31T9UTlWDs5uolO+tQJQBg9czXtVu+5tXd1NjwlqrXrtNxHQAb0fZ6zVBvV4IxG+oakzpx0TsgAcCquE1dp3p3dVc1RuGdi/W59bhjAxbABra5Hl59UQnGbFK3H+q5SgDAyrp1HbR5eby6ixqjOa561XrdtwELYAM7rL461IOqQQ1G7nd31d1lAICVMV83OXD5Qt4/rsZofP6w5ZeKrgsDFsAGt6PeW71MCUZublLH76zrSwEA+2e+tlUfGer2aozKa0+qfet2MKc/wMZ3QD2l2qkEI3fzTfXnMgDA1TdfR1Ufqn5EjVG5ZD1fPlgGLIBROKT2zNUx1cVqMGZDHb1QD1QCAK667fWAlq95dT01RufNC/Xl9XwABiyAkdhWC0M9WQnoT0+vH5UBAK60yfZ61lDHV1vkGJ+lKbgkiQELYES2159U/0sJRu46m+qEt9QmKQDgih1aN5yvvxvqmWqM1gfOqE+s94MwYAGMyKSGST1kUueqwcjdZb6eJgMAXL5tdedNy8PFvdQYtal4QygDFsDIzNeXqocrwdgN9YzFurMSAPC9ttVvTer91Q+rMWqf3lZvn4YHYsACGKH5esewzu8iAlNg81AnLta1pQCAZbeug7bVX07q5dVWRcZtUi8+qfZNw2MxYAGM1J76nUmdpQQjd6ul5QN0ABi97XXPA2phUkerQfWVb9YbpuXBGLAARurIumhfHVNdqgZjNqmHLNSvKAHAWN2mrjNfrx7q3dXNFeGyY6SXfaYunpbHY8ACGLHD69TqGUpAr/5k3VQGAMbmsPrpzbVQPUINvsMFm+uV0/SADFgAIzdff1T9gxKM3A0213FDTaQAYAyOqOttrz+fq/fmQu18rz//ZH19mh6QAQtg5Ca1NNQDm7IvULAO7rG7fkcGADa4ufl6xKX1qaEeJQffx4Wb6sVT9w/X3wsAO+rzQz1aCcZuqD9YqNsqAcBGNF8/sb0+Xr26+gFFuByv3FlfmbYHZcACoKod9ZfV8UowclurN51TB0oBwEZx27rp9jqh+uBQt1eEK3Dh1uVLjEwdAxYA/25zPW5S5yjByG27cEoP3ADgqthR15+v5+6ts4bld5+G/8wrTqtzp/GBGbAA+HeH1gVLdf9J7VODkXvcYt1LBgBm0R3qutvrWUvLP5h8enUtVbgSvrl1Cq999W0GLAD+Hzvqw0M9XwnGbqg3fML1QQCYIbeug+brGRfXZ4Z6ZnVdVbgKXjqtZ1+VAQuA7+Pceu5QH1GCkbvx1nq9DABMux+rG83X0w9YPuPqOdX1VOEq+re9U3z2VRmwAPg+jqq91f2rC9Rg5O6zyzt0AjClDqvt8/WaLfX56rnVDVTh6pjU886a8mN/AxYA39eO+udJPV4JHND1kp11qBIATMuXpu31c9vrvXO1q3p43j2X/fOZof5s2h+kAQuAyzVfx1YnKcHIXXNSJ55SW6QAYL0cXgfP1xPnl99R8G+H+mlVWAmTesZiXTLtj9OABcAVWqpHVV9QgpEf2N3+wOWXZgDAmpmvrfP1K/P1jn31L9VLq0OUYQWdslAnzsIDNWABcIUOr69VD6yW1GDkfm9X3V0GAFbb9jpyvv60+mL1V9XPV5uVYaVN6gnVMAuP1YAFwJU5iPr7Sb1ECUZublLHn+adnQBYeZNtdef5+sPLXiL48eqxuSg7q+svFurDs/JgLbgAXFlPb/laC7eTghG7+db68+rXpQBgf9yhtlxUPzVXv1T9YvVDqrCGvjWpJ8/SAzZgAXClzNclO+t+m+oTQ11DEcZqqF/bVX+3o96oBgBXxW3rpnvrHpO658X1c3PO6mWdTOpFC/X5GXvMXJ6FGXkdKLNvu49FZutz42OqVyjByJ2/r464bZ0jxeqadzy2rhYdo8B+2VHXH+qooe7R8q/bqMIUOOegmv/H+tYsPWhfkK74mzQHTKwJAxYz+Pnxb6r7KMHIfXh3/eTRtU+K1WPAWl8GLLjKn7N+uLrTpP7LsPzGH7fLtaeZMpO6z0L93aw9bi8hBOAq21cP21Q7qxurwYjdZVv9j+q5UgCMz63roK11x7m681B3qu5c3aQs70y1t83ieFV+onKFnIHFWnEGFrNose411DuVYOT2Tuqu8/VRKVaHM7DW/XO9YxR8HqqtS/Vjm2p+qPnlP2p7dYjvqZkxF07qsFm79tW3OQMLgKt7MPeuheVrYT1WDUZs81AnLtYR8/VNOQBm031r00LdbHPdYqluUd2y2rZ8yNMhc8uf72GmTerZszpelQELgP1wrfrdC+uoyw7wYKxuVb2sepgUANPn1nXAgXXwpA7ed9l/qx8e6haT+tHqFrvr5nO1eUkuNq5TD6uXLszwE3C64xXwEkLWipcQMuOfK29bfazaqgZjNtSv7Ki3KrGyvIRwfXkJIWtobr42H1ibv1GbD6jNm2rzntq8uTZPasuktlTXGuo6Q12n//jvtee+48+qG7U8Uh3c8vU6D5KXkbu0uuNinT7LT8IXpCv+pswBE2vCgMUG+AbnSUO9WAlG7ry9dfgR9S9SrBwDFgDst+ct1jNm/Ul4O08A9tu2eulQJyvByN1gUx07+KEEADA9du+p522EJ2LAAmC/TWrYUg+qzlODkX8s/PTueqISAMAU2DfUQ8+uPRvhyRiwAFgRh9a/Vo9UgrEb6g8uuzYcAMB6esHu+uhGeTIGLABWzPb660m9XglG7oDqxHPqQCkAgPUwqU8cWM/ZSM/JgAXASntCdbYMjNz8N+tFMgAA6+DioR5w6vK7D24YBiwAVva79vrmpI6p9qrBmE3qtxbrXkoAAGt8DPKUxdq90Z6XAQuAFTdfH6uerQRjN9QbPlE/oAQAsEbevVAv34hPzIAFwKrYXS+oPqgEI3fjrfU6GQCANfClTfXAatiIT86ABcCqOLr2baoHVOerwcj9/GI9SgYAYBUtDXX/nfWVjfoEDVgArJrD6jNDPVYJxm6ol55et1ECAFglL9hd79vIT9CABcCq2lEnVH+hBCN3zbl60ym1RQoAYIV9cFs9c6M/SQMWAKvu4vrN6nNKMGaTuv2B9RwlAIAV9OW99Wsn1b6N/kQNWACsuiPrG3PL18NaUoOR+/2d9VMyAAArYO9SHX1W/esYnqwBC4A1sa3eP9QLlWDk5ubqjafV9aQAAPbT759R7x/NQZS/bwDWyp7l1+afogQjd/Mt9WcyAABX11BvWaw/HtNzNmABsGaOrEs31THVhWowcr++q+4vAwBwNezcXA8d25M2YAGwpg6rT1VPVIKxm9QrzqhbKAEAXAVfWar/vnOEPxA2YAGw5rbXa4Z6uxKM3EH76oS31CYpAIAr4ZLql8+oz47xyRuwAFgXm+vh1ReVYOR+Yls9VQYA4Ep41GJ9aKxP3oAFwLo4rL461IOrQQ1G7pmLdScZAIAr8KLFOnbMAQxYAKybHfWe6mVKMHKbhzrx9LqWFADA9/GXi/WUsUcwYAGwrg6op0xqlxKM3K03G3MBgO8yqffvqQflVQsGLADW1yG1Z1L3qy5WgzEb6mG76peVAAAuc8akfvHs2iOFAQuAKbCtFganRUOTevWZ9UNKAMDofXGp7rWrvibFMgMWAFNhe728ercSjNwNL63jhppIAQCj9bW5+pkz6rNS/AcDFgBTYVLDZPldCf9NDUb+sfDTi/XbSgDAKF24VPfe5Rqx38OABcDUmK8vTephSkAv2FWHywAAo3LJUv3iGfURKb6XAQuAqTJf76herQQjd8Ck3nROHSgFAIzCvkn9xhl1shTfnwELgKlzcT1xUmcpwcjNX1QvlAEANryloR60UG+V4vIZsACYOkfWRfvqmOpSNRizoX5rsX5WCQDYsJaqh+yuE6W4YgYsAKbS4XXqpP4/JRi5yVBvOKtuJAUAbDjDUA9frOOl+M8ZsACYWtvqRZP6P0owcje5tF4nAwBsKMOkHrG73iDFlWPAAmBqTWppqR5QfV0NRu6/L9ajZACADWHvZPmaV35AdRUYsACYajvq80M9WgnGbqiXnl63UQIAZtrF1a8s1BuluGoMWABMvR31lxNf5OGam+vEU2qLFAAwky6Y1L0W6x1SXHUGLABmwtZ63KTOUYIxG+oOB9SzlQCAmfNvc3XUQv2DFFePAQuAmXBInb9U95/UPjUYs0k9eXf9pBIAMDM+P1d321WnSnH1GbAAmBk76sNDPV8Jxn78tlRvPK2uJwUATL2zqrvuqjOl2M8DIAkAmCXn1nOH+ogSjNwPb6lXygAA02tSn9had1usz6mx/wxYAMyUo2pvdf/qm2owcr+xa/ljAQCYPv/n4jrqtDpXipVhwAJg5uyof57U45Vg7Cb1ijPqFkoAwFR5bXXPs+t8KVaOAQuAmTRfb6j+SglG7qB99ca31CYpAGDd7aueuFiPWKxL5FhZBiwAZtakHlV9QQlG7q6H1VNkAIB19fVJ3Xux/qcUq8OABcDMmq/zJvWgalCDMZvUsxbrTkoAwLr41L6680K9R4rVY8ACYKbN1/+e1EuUYOQ2D3XC6XUtKQBgTb1nS935zPqUFKvLgAXARvC06pMyMHKHbPKyBQBYSy/bVvf+ZH1ditVnwAJg5s3XJUPdb1LfUoORe/iu+iUZAGBVXTKphy/Wb5+0fOF21oABC4ANYUedMdTvKsHYTeo1u+sHlQCAVfHp6m4L9Top1pYBC4ANY3u9clJ/pwQjd8OhjhtqIgUArKg376nbLdbHpFh7BiwANpS99dDqK0owZkP9t8X6bSUAYEVcdNlLBn/j7DpfjvVhwAJgQ7ltfWWuHqIE9IKdtUMGANgvOyd1pJcMrj8DFgAbzrZ6Z/UKJRi5Ayb1pnPqQCkA4Gr5swvrzgt1hhTrz4AFwIZ0fv1etVsJxmxS2y+qP1QCAK6Sr03qlxfrMZ+pi+WYDgYsADaku9S3qvtVl6jBmA31+IX6GSUA4Er5QHXEQr1NiuliwAJgw9pepw/1NCUYuUl17Fl1IykA4HJ9c1JPWKy7L9bn5Jg+BiwANrTt9ZLqfUowcje5tF4rAwB8X+9equ0L9fJqSY7pZMACYEOb1LC3HlSdpwYj9wuL9UgZAODfnVc9ZLF+9oz6rBzTzYAFwIZ3RP1LvnGHhvrjM+rHlACA/npS2xbrWClmgwELgFHYXn891BuUYOSuua9OPKW2SAHASH3xsncY/NWF+rIcs8OABcCYvug9vjpbCUbuyAPq2TIAMDaTesOW2uYdBmf2WB4AxmF++d1ljqn2qsHID+CfvLt+UgkARuKU6m4L9dBP1tflmE0GLABGZb4+Vj1HCcZ+DLhUx59S15UCgA3siy1fpP1Oi/VBOWb84EUCAMZmd/1B9SElGLkfObBeKQMAG9DF1fM31SGXXaR9kGT2GbAAGJ2ja9+mun91vhqM3P0Wl19WCwAbwlBvWapDF+vpO+tCRTYOAxYAo3RYfWaoxyoBvWJ3/YgMAMy4U6q77q5fO6M+K8fGY8ACYLR21AnVXyjBmA113aV64+C4EIDZ9IXqwZdd58olIjYwByoAjNql9Zjqc0owcndbqKfKAMAM+UL1uD1168U6Lte52vAMWACM2u3q63P1gGpJDcZsUs9aqDsqAcCU+87h6hVn1x5JxsGABcDobav3D/VCJRi5zdWJp9e1pABgChmuRs6ABQDVnnpmyxf/hDE7ZFP9sQwATBHDFZUBCwCqOrIu3VTHVBepwcg9Ynf9ogwArDPDFf8PAxYAXOaw+tSknqgEY7dUr91dP6gEAOvglEk9sLqV4YrvZMACgO8wX6+u/n8lGLkbLtWxQ02kAGAN7J3USdVdF+uOC/XGxbpEFr6TAQsAvsuWenj1RSUYuXsu1hNkAGAVnVe9aFK3XKijF+tDknB5DFgA8F1uU/821IOrQQ1G7g931g4ZAFhhu4d69IF188V68kJ9XhL+MwYsAPg+dtR7JvVyJRi5AzbVif9UB0gBwH7aV/3tZPkM3/nd9apTvXkOV4EBCwAux9Z68qR2KcGYDbXjknqhEgBcTburJy8tn2318wv1Xkm4OlyY8woseOkIa2S7j0WYWjtrx1x9rDpQDUZsGOpnd9R71vqO5x2PAcyi86o3V8ctLh9HwX5zBhYAXIHDa9dQT1GCkZtM6tgz6oZSAHA59k3qnUMdvad+aLEea7xiRQ9GJLh8zsBirTgDC6bbUJPFelf1M2ow8o+Ft++oX1rL+3QGFsDUW5zUcUO9cbG+JAerxTfNV8CAxVoxYMEMHJnVTYbl62HdSA1G7pHb6zVrdWcGLICp9MnqbUv11jNqQQ7Wgm+ar4ABi7ViwILZsFi/MNTblWDkLpyr222rf1qLOzNgAUyFpeofq7duqrftrHMkYa35pvkKGLBYKwYsmKmvDa+qHqkEI/fxc+suR9Xe1b4jAxbAurm0+t9DvW2u3r5QX5aE9bRZAgC48i6uJ16jfmqo26jBiN3x4Hp29TQpADaUb1QnD/W2a9Tfnrr8e5gKzvq4As7AYq04Awtmy866w9zyafRb1GDEliZ19/n6wGreiTOwAFbVJS0f05y8VCdvr4+fVPtkYRr5pvkKGLBYKwYsmD2L9dSh/kAJRu6zF9dtj1zFn9AbsABW1FDtmtR7hzr5wHr/qXWRLMwC3zRfAQMWa8WABTN59De3e/m6ED+lBiP3pu11zGrduAELYL99dqj3TerkrXXyaXWuJMwi3zQDADC1DFgAV8nF1Seqj0zqo0N9ZLE+JwsbgYu4AwAAwGw6+9tD1aQ+ckCdfuryuwfChmPAAgAAgOn3per06mOT+uje+siZ9VVZGAsDFgAAAEyPr1eLw/LF1hfmamGpdi3WedIwZgYsAAAAWHsXVWdUC5NaGGphUy3srC9IA9/LgAUAAAArb6nlMeqcb/+a1DlDnbO5zjm9/jVvVAFXmgELAAAArroLq6+0fG2qz/VdI9WB9VkXVIeVY8ACAACAZedXX/7uX8NlvzZf9vtJfXnn8oAFrBEDFgAAANNoqeUzmPZe9uvy/vfeSV06/Mfv91TfrC6Y1AXD8ih1wWW/P3/psj+f1PmTumBvnT9XFxxYFzhjCgAAAAAAAAAAAAAAAAAAAAAAAAAAAAAAAAAAAAAAAAAAAAAAAAAAAAAAAAAAAAAAAAAAAAAAAAAAAAAAAAAAAAAAAAAAAAAAAAAAAAAAAAAAAAAAAAAAAAAAAAAAAAAAAAAAAAAAAAAAAAAAAAAAAAAAAAAAAAAAAAAAAAAAAAAAAAAAAAAAAAAAAAAAAAAAAAAAAAAAAAAAAAAAAAAAAAAAAAAAAAAAAAAAAAAAAAAAAAAAAAAAAAAAAAAAAAAAAAAAAAAAAAAAAAAAAAAAAAAAAAAAAAAAAAAAAAAAAAAAAAAAAAAAAAAAAAAAAAAAAAAAAAAAAAAAAAAAAAAAAAAAAAAAAAAAAAAAAAAAAAAAAAAAAAAAAAAAAAAAAAAAAAAAAAAAAAAAAAAAAAAAAAAAAAAAAAAAAAAAAAAAAAAAAAAAAAAAAAAAAAAAAAAAAAAAAAAAAAAAAAAAAAAAAAAAAAAAAAAAAAAAAAAAAAAAAAAAAAAAAAAAAAAAAAAAAAAAAAAAAAAAAAAAAAAAAAAAAAAAAAAAAAAAAAAAAAAAAAAAAAAAAAAAAAAAAAAAAAAAAAAAAAAAAAAAAAAAAAAAAAAAAAAAAAAAAAAAAAAAAAAAAAAAAAAAAAAAAAAAAAAAAAAAAAAAAAAAAAAAAAAAAAAAAAAAAAAAAAAAAAAAAAAAAAAAAAAAAAAAAAAAAAAAAAAAAAAAAAAAAAAAAAAAAAAAAAAAAAAAAAAAAAAAAAAAAAAAAAAAAAAAAAAAAAAAAAAAAAAAAAAAAAAAAAAAAAAAAAAAAAAAAAAAAAAAAAAAAAAAAAAAAAAAAAAAAAAAAAAAAAAAAAAAAAAAAAAAAAAAAAAAAAAAAAAAAAAAAAAAAAAAAAAAAAAAAAAAAFWhBmkAAAAdSURBVAAAAAAAAAAAAAAAAAAAAAAAAAAAAFgR/xdETGKKKyVZmQAAACV0RVh0ZGF0ZTpjcmVhdGUAMjAyMS0wMy0xMVQyMDowMzozMiswMDowMIJlty0AAAAldEVYdGRhdGU6bW9kaWZ5ADIwMjEtMDMtMTFUMjA6MDM6MzIrMDA6MDDzOA+RAAAAAElFTkSuQmCC;" vertex="1" parent="1">
          <mxGeometry x="670" y="80.25" width="50" height="50" as="geometry" />
        </mxCell>
        <mxCell id="ZmlpSeiP9JrGqyAvnS4Z-20" value="" style="rounded=1;arcSize=10;dashed=0;fillColor=none;gradientColor=none;strokeWidth=2;" vertex="1" parent="1">
          <mxGeometry x="550" y="350" width="200" height="70.5" as="geometry" />
        </mxCell>
        <mxCell id="ZmlpSeiP9JrGqyAvnS4Z-21" value="" style="image;aspect=fixed;html=1;points=[];align=center;fontSize=12;image=img/lib/azure2/compute/Container_Instances.svg;" vertex="1" parent="1">
          <mxGeometry x="590" y="355.25" width="56.47" height="60" as="geometry" />
        </mxCell>
        <mxCell id="ZmlpSeiP9JrGqyAvnS4Z-24" value="" style="shape=flexArrow;endArrow=classic;html=1;rounded=0;fillColor=#e1d5e7;strokeColor=#9673a6;" edge="1" parent="1">
          <mxGeometry width="50" height="50" relative="1" as="geometry">
            <mxPoint x="440" y="310" as="sourcePoint" />
            <mxPoint x="530.07" y="360" as="targetPoint" />
          </mxGeometry>
        </mxCell>
        <mxCell id="ZmlpSeiP9JrGqyAvnS4Z-25" value="" style="image;aspect=fixed;html=1;points=[];align=center;fontSize=12;image=img/lib/azure2/compute/Container_Instances.svg;" vertex="1" parent="1">
          <mxGeometry x="460" y="280.25" width="28.24" height="30" as="geometry" />
        </mxCell>
        <mxCell id="ZmlpSeiP9JrGqyAvnS4Z-26" value="" style="rounded=1;arcSize=10;dashed=0;fillColor=none;gradientColor=none;strokeWidth=2;" vertex="1" parent="1">
          <mxGeometry x="550" y="209.75" width="200" height="70.5" as="geometry" />
        </mxCell>
        <mxCell id="ZmlpSeiP9JrGqyAvnS4Z-27" value="" style="image;aspect=fixed;html=1;points=[];align=center;fontSize=12;image=img/lib/azure2/compute/Container_Instances.svg;" vertex="1" parent="1">
          <mxGeometry x="590" y="215" width="56.47" height="60" as="geometry" />
        </mxCell>
        <mxCell id="ZmlpSeiP9JrGqyAvnS4Z-29" value="&lt;b&gt;MariaDB&lt;/b&gt;" style="text;html=1;strokeColor=none;fillColor=none;align=center;verticalAlign=middle;whiteSpace=wrap;rounded=0;" vertex="1" parent="1">
          <mxGeometry x="676.51" y="215" width="60" height="30" as="geometry" />
        </mxCell>
        <mxCell id="ZmlpSeiP9JrGqyAvnS4Z-30" value="" style="shape=flexArrow;endArrow=classic;html=1;rounded=0;fillColor=#e1d5e7;strokeColor=#9673a6;" edge="1" parent="1">
          <mxGeometry width="50" height="50" relative="1" as="geometry">
            <mxPoint x="440" y="244.75" as="sourcePoint" />
            <mxPoint x="540" y="244.5" as="targetPoint" />
          </mxGeometry>
        </mxCell>
        <mxCell id="ZmlpSeiP9JrGqyAvnS4Z-31" value="" style="image;aspect=fixed;html=1;points=[];align=center;fontSize=12;image=img/lib/azure2/compute/Container_Instances.svg;" vertex="1" parent="1">
          <mxGeometry x="460" y="200" width="28.24" height="30" as="geometry" />
        </mxCell>
        <mxCell id="ZmlpSeiP9JrGqyAvnS4Z-32" value="" style="shape=flexArrow;endArrow=classic;html=1;rounded=0;fillColor=#e1d5e7;strokeColor=#9673a6;" edge="1" parent="1">
          <mxGeometry width="50" height="50" relative="1" as="geometry">
            <mxPoint x="709.4" y="345.25" as="sourcePoint" />
            <mxPoint x="709" y="285.25" as="targetPoint" />
          </mxGeometry>
        </mxCell>
        <mxCell id="ZmlpSeiP9JrGqyAvnS4Z-33" value="" style="shape=flexArrow;endArrow=classic;html=1;rounded=0;fillColor=#e1d5e7;strokeColor=#9673a6;" edge="1" parent="1">
          <mxGeometry width="50" height="50" relative="1" as="geometry">
            <mxPoint x="706.01" y="144.49999999999997" as="sourcePoint" />
            <mxPoint x="706.41" y="204.49999999999997" as="targetPoint" />
          </mxGeometry>
        </mxCell>
        <mxCell id="ZmlpSeiP9JrGqyAvnS4Z-34" value="" style="shape=image;verticalLabelPosition=bottom;labelBackgroundColor=default;verticalAlign=top;aspect=fixed;imageAspect=0;image=data:image/png,iVBORw0KGgoAAAANSUhEUgAAAIkAAACACAMAAAAI9bozAAABTVBMVEX/////rDBycqH/tUb/rzf/qSj/s0F7e6d1daP/uE7/pR7/sTv/pyNwcKD/vFcAAAD/vl329vbv7+/n5+f/tDr/wmLX19f/vVPQ0NC/v7/h4eH/t0KBga2fn5+EhISWlpZJSWMAABJRUWuvr69qapaOjo53d3dfX19fX3xwc3dBQT9UVFJAQFTtnylcXIBqamgoLTLorFJFSU0uLiu5hTY0OFFcQBZnZ4pFLQAADx84ODS/gykgICfdmTMdHRzppkAtJRgxMUNPT2ELCwASEhNbW21tbX2wsLojIzdvXE+BXyk5NjxyVCVaSC2mfTpNOhiUcDuDZTnYolFkTChCNSMRHSnCkkoFGDVRWF8dKUYvHADuuWT/1HNKQTY7JwksNkKWaygeFgl3UAwAAB6jbRlaOQCJWgwYAgC9eA7ViBFMTHOAgJGYmKUKCjo1NVijFieYAAAQIklEQVR4nMWbeVviyBbGRYSWtpuQsCUwgZCwhE1WQWUXBC8g2CCO7fQgOo5jj1y//5+3KhtJCJt67fP0o7YC+XHqLG+dCltb6xtKlpEosYWRDSSKa/ydINANXu0t5oqSTBAJRDLgm2f+z/jZGflBJFvwLRNI1Cr8qLIgTSU+ioQzbMHvGYSORT+UZJElctR/qlrh89GGRdt0pxv6qJgFRkTLEWYLC2TKCYUD8PPe/tl5n/kwEFfGQ3qQdCZCkiGFAzwXvf1O49ux68NQYMDiUS/4hipiNz1o5zvp82Hww0gWmLWaaueTRPLb5a8OWqZr7+aLDqJ6kf7AoNWy8JV9yBYdW6Hz4YcVWk1DOwNLP590bOGNbxnrryRxHNpT1XwSJI533P2lldbbtqeK7DHwBjbqnX9cUZm30BUkicC8Drevbn9d0LouU/bU7yyXNsSlpev9ZSTkN7sl9Z3lAsQ6GqTKv6yoXF9BEjrE/+eb8+L6/3Odlavu+jNlsQxEEvLSaf6/dEIi5AuseAjZtpst2QNBsjnKA+fgaJGger3hSJHNrHjZ6yuz2XJBxfjuh6WzTmdbQ+i+0QL9zioSrJwCJG2qJlw93HWaKj7HO4Ogt1c1NrI8Upi22Wx2dqmakLzEjdPk7K140sZGDK8O6OjyFw1dQZLcvrjJwJCUyWTKvXNR8fQGB0JOLDLrcQqSDNkjIWHQ2wFwymD0rp0Qi/zRO6CX6zAm54QkfRYR61n4AvjEOQm/JwkxtF9QJ8vzAGYOiFhAIgYpmQMkelOVeEeSRO/HNyq2tJ6AsgZJUpcsIqppfFwx6fX6bPr9igpW/ePHkI4tjT2yzS0OkCcSibWRgiT63KqSuL4Bdfrjkq0t04NoemA2g6hIZfJ1MURByEIQfSrzbkUFdLYfN+zZsibiGEMQkCrl/J2ULNcPbg5l8l6d0Dqy23/csWfLIi8wgSCARN4Ugl2exHTzTkHLtO12ezmPLFEb2HHKyZOc8ZKNM/KcJ9GXku9SVNDQwG7/o5FHlrwakeNATM7sGV2WHkdc8iB6d/td9oSu4z94kiXJmOhJJOw/Uo45LiuQw2h0l6rvEbQkXJzBiEWWwP6ZEkgmtX9z0lVdxxUOBKBkb9+BJHoFSc6WkYBiYhJJ6H5XrO/WSIkHAZZ7u3xznIPFsV+d5euLH5MeiCTtAxrpidtzLF1wCyDu0u2bgzZwYYckNTazGPbQbBJIuhRdHmavef2AXmcFkr0999s7YXLAkQB5svAh4axTJBlSsVAmdSgsRUgg2QNW6b+xqOBjCGLvLZEn1kzFJJLk6Jo3nS0INSU8cYsge7a3Bi2/OPaLg8VTVileTXogT84Iz9AtKDVP2y2CAMu9aZCB3aY4ki4VWyRP0EhK4AB1fcyOCLxeqfBNz9t1z0D2KkdvKSr4JQdiB6JgUW8nhk4RRF+5yftw7DbrbnPxyRy6JY6dHdubgtbTgxwWe46tLZIn13y8cmW9guSBZAu39ZWGQ0GyAy0+fn3QYn/CxbFYLP39RfIEv5Q8IpIQh3o3l8kSCQeyYys0Xr3nAAIWclgsh2xyQZH0wJYjdDqOxLVlRSpu45iZkeyI9vo9YbgnkIzzSW3PYsnKDERf8kESdFQCnaaDCiQ7M4u/NmjRuxTHYUnd5JPa8oS5d85A9KUjTrJxdQTIV45EBrJjE8vvpsZ0eRDLAMkXNd8NGh3IQPRAFJRBUfMO3Xvu0sgKSeQgOt1O/3VFJXxll0gymqN4IicHgSQZFEZxBZSRey9xaFOC6HSF5Gv2HNaiZeYT7flqOqsg6R1w+3hXpmTbs1Uywb5NyQHs/jVFBewuOA6zOftX/liLhOjLQYz6yQEd2YJyAJDs2Xqjc5saRKerv6KoJPjFATuq7O/5iJZXw3KXgBbTfqG4ln2dBSR7xsuZTyQQXWHzoOXmZpADkHxnoxokrrESxNg+oLiWHW4DElDJxrY5EJ3ucOOgJeHicCDmnvb0JJxVcBiN91SMa9nevg0mzV6uMMeh020uryNgcXgQ84Q6ScyTuHjtPgMx5mh+ykZcctlrK/XVIAaDQTdZPonRuE5KBDG3xTmewjwTtxIEkPBTNke1wq9K7sGmBjEY4nebBa23LXKYLd1/a/MdY+YSEcQ4pjtcy7ZmSkJ578fnQAyGp9uNisrtQCIx5/Zr8/JEdInEYdTfsR0uHLFOgY9V2+TeNgdiMNxvMshwVC1ykuKcPMEyFSUIqGWI0LLRdEHseeP4HIfB8HOTQYZ3InE4zf18cS71vLxLJA5QykqAhA+BkJg0O4XcPMgXw0N6bRAsLS2OyVkZ54tqecJvNeUge3uApMi37PBESprDgorD8OXLF8P6e0L8XAIxOVOX+bI63AOcSxQggGRfIAm2peTlnKLkACTr7wkDE6cIYoLTM/VZjRUmjpJjz1YAq8MHQKArJS/I5B01CEC5X1O+odyc18zvMp2DRr6sCrFwz60GAZsrHyuEIvP3rIzEb+JqDmDrymtiaJFAAMkRW1bKE1e1YlSD7NkmR6wgYwgZie5xHFeDfP78Zc2gDfecIgecz/yllidhce89A4HFY8QK4kFGAso7Ui3oVCDA/l6nE6Kj1AwEkPzOKknw8dzSwDLWlqZs+KG8ihR8Rw9zIF9+Hq1xRwYxlIFwMyulPJm5RAayY+vWaOF+Asd4R15FzpOjdtwg54Aoj2tM34I9p0lGMjmjFfLEcalXhQhf2nM1cbbhuonLy1mhQyL9kkEBAlBWj/StHbOCpH1AK+53EWdFCg5IIk1ZMI5klrv3AWsUASsk4wD2lFwl35iuHMTk7B7Q8pkFkZtfGV4DxChBemD/xJWNpuFCA77+0xclyspOmOgpSfox+eEOel1wa4LE+4Jk40kU5ewRSHqi05jEFSjxxvKgtYpDTXE+c6mYnjD37rkQ4awypmpBiURZVg13oEijAaT68FnO8hBeuj6zIRE/BXDe0TIS658VbZCd0p10MCon4TOmwGWVI3GkXKLx0k6YvnLKOADJDS2bngCBpMkBSOr0mVdNItYQofuiRBrJPcmCVnP3Ir7pO7MCRG+6Y2d3Vbq4naYGCBDtCC0djN7F1Y3maSTMRpmknOV+SVEhJ04FiL5yJzvcAeG6AERX8tE+RkkibzSzRGHSvsZDXAjaxWck6PXAqQDRpxrskViDYAZrcwAl4mN9hIJEUd/jIylRMCI8qnafuF8/LNwTOpJOBYdeP2hIR6/oNdzxaoNAEvFglCdRNRqFJHF4EKTafloWtN6JUwmizx6x4uEOee9eCKKb+KSDUY5EwQGdMlYuBOHp+JD+w5P2QATOZpxKEI6E9yDIYNtCkB05yT/xORANSYIS3tCof689dMbPK0oOnoT/Y3hiW8QBSNpHrHgwar2ZBwF2ON/yUJfvfqwZtJ6JUwXizoqHO/ihcTGIbqc7YsWjN8fYMM8BqofW5o+5e9S8N7GcUoHo3ZMzljvc4Qc0i0B0OkByLFwJ/1stAXjT1GnhnNav8UMViNHobtdo7nCHhFORhRwG3fCMFismwZGoOT5//ql156yjeKgxE/H0nCoQo7HLyw5QXW1LQAy6/pk0ZWH+1gT5/PlRa8xGRPhExmQbCGxUmQMxDvlJUbqwFMSgG9ckQUXeGzRBPv+8UUcnimIunGACiXStNpodZylHeIJG7MeoIJRPi5eGq+zxak0SVN57WfJyX+I/nwoPj7k+ItUxFHMQDBkIh65PKOrff/f392ONWT57svMgxjGUJ9htSQGiU4MAEo6Ys8CjVF9/Pj08tnM31QYCrBOCsWnFGdITinRiEMD/9at/n6ZiRfCAoJRa1khljsNovIF3QYUf5qa8ShBDvB6TJk+ex3jp6WGSq/oQ39Gok04EvQxDEDhBBtNHf31/oTiCrxCCSiLIXeY4GiTlH+hguhoglTu6RhI5pRbRCSxxaKXSU6FQmNSpA7GzBJA7ZJRMXyc8gAAYGQiGhUXwA4TtrzwGXWuUM1EPQzgwVfKEsurJGdhjVupsjYyWbILBCxcK2YfJpN3t5vr9cbV6x3keQYo+UVChJAMcAAg8iVD0hKYEgG0BgbP9WgNpBAirVlXDxnOTM34+00n3J+3h8LLa8MEr+ny+o6NRMtlJhxJBj5ckoeNdmCsEB5R8IAZDnbPaAbUPFmEb2i73dYbhp8pIxLtQmjBttUeMNpu7hOQ7nshtOh0NheF1uQXHHVYMBSZLRitwgjcYSscoChJs7wLbVtgMhC6WQ8wSMX2dFWd4bmiQpVTIXsBJEWbFMAzVfC7MhAAgODkBYeD38wjzGDKQ/RoSxZeJeleZA3DrjZVSttdrDy/LPrgU2oc7KFwET+g4CRaBFlyw+2l3ZotA/DEks2K2xeSy2d5F97wKQgGEQRrmHoy8TLEs5jkoiHARYBjcxgDAvh9cnbNdtS0C2S+XA6vGsQzSgMkfTQTg9V2YmFlMguHCgIFhcH1yQtPsjODTribHYpBGevUwCYUZMLd8wAdkIBHhfeAXry+ZNoiaQwKhEK1DkWVQqFXKRQCQ3/30mxpBWJONQPy39XXPaflcBPXo+hoswn7er3l9GcjuChBFOfPHyuuNYTFvIgraEohD4INPv/0G/gFbCrLKI8q6SiFrzoO93/lrC7YeyNJY5UAkkhiy7mkXebA5yGqPSCA0svb9w8yZGmRliMyBbKtBZoUVCa59FEk0ZhyrQBZ4ZDGIv7jBx2hc9fxKkN1df56leaNi4AsQfaDj+3e3l9azr9sx9bx9qUWppSB59iRWKzYajXq9XoaWKYOfwP8bxSKse2zer2KRiZG1o5UzpvhpEQgL5BVSL0cSHpLAHS4rbM2gN1tdDpzgO2Gd00qgDua3d+dAvhY3+9wkmqFFEMWKsLF6/TjkIRmcaDGBJk2dnApGU/Rp89lLtggHLIlMIBTJ1OtFUJNmGpErafUNP6vobeTnQPJUsR7xEAQ5bTafp9MWbI2cSOIM/OxyEK3p9LnJNqetaQs0CW8iUm5wNLxb/FRx/QQWnZJoqNI3D5R3kGg1X06nhFr1qp+MOVqtKQ0e2XJZ8UAGrhW9v+2nGkho87sarJHOJxkHm6yHGHwam24S9ygxbcYoD4YRgWgGRE85+Krb3PHybV7yR60eCkybz6/4YDmKEfDyqIsgydd+xgo/5mIFWKxeZqax1ttvgSamgWcQQBs/Dw0iMeAWfznjJajpWynQFn3w3CLw1rT5382dQx43YmwxwjSbb/UHOj2dOsS11d4ZLDert4EcO6zzAQ/ydenuQMXRosjXfiYDJVotbkFRQnoJtHXAXdw6PXlper3hA2q6HgzzslLDaxtGTE9PQemaNk9a0itg+PPpFK4R0TwVf4u1VpOAFzuZvo7DNT19FjfL1ulpywXqp6P1fNrknIM3w2utCtgcOByw4J4+M6+MsSateKNY6/Tl5aVJ8pfHT0/XC3ssEHhuNr2tV2SsZIvfMEacnn7cJ+01rs91NytBgjD5pR9uJ14oYDRoro5XFIG32P8AYf/nQcVqjggAAAAASUVORK5CYII=;" vertex="1" parent="1">
          <mxGeometry x="674.65" y="357.88" width="58.6" height="54.75" as="geometry" />
        </mxCell>
      </root>
    </mxGraphModel>
  </diagram>
</mxfile>
